Jost-RegularItalic.ufo
<glyph name="asterisk" format="2">
  <advance width="574"/>
  <unicode hex="002A"/>
  <outline>
    <contour>
      <point x="532" y="598.5" type="line"/>
      <point x="541.5" y="531.5" type="line"/>
      <point x="350.5" y="481.5" type="line"/>
      <point x="342.5" y="530" type="line"/>
    </contour>
    <contour>
      <point x="462" y="366.5" type="line"/>
      <point x="400.5" y="327" type="line"/>
      <point x="324" y="491" type="line"/>
      <point x="366.5" y="520" type="line"/>
    </contour>
    <contour>
      <point x="234" y="328" type="line"/>
      <point x="183" y="370" type="line"/>
      <point x="328" y="519" type="line"/>
      <point x="364" y="488" type="line"/>
    </contour>
    <contour>
      <point x="160" y="533" type="line"/>
      <point x="191" y="598" type="line"/>
      <point x="359" y="528.5" type="line"/>
      <point x="336" y="482" type="line"/>
    </contour>
    <contour>
      <point x="345.5" y="699.5" type="line"/>
      <point x="414.5" y="699.5" type="line"/>
      <point x="371" y="505.5" type="line"/>
      <point x="321.5" y="505.5" type="line"/>
    </contour>
  </outline>
</glyph>
<glyph name="zero" format="2">
  <advance width="582"/>
  <unicode hex="0030"/>
  <outline>
    <contour>
      <point x="154.5" y="350" type="curve" smooth="yes"/>
      <point x="140.5" y="228.5"/>
      <point x="150" y="72"/>
      <point x="273" y="70.5" type="curve" smooth="yes"/>
      <point x="396" y="69"/>
      <point x="473.5" y="213.5"/>
      <point x="493" y="350" type="curve" smooth="yes"/>
      <point x="507" y="471.5"/>
      <point x="497.5" y="628"/>
      <point x="374.5" y="629.5" type="curve" smooth="yes"/>
      <point x="251.5" y="631"/>
      <point x="174" y="486.5"/>
    </contour>
    <contour>
      <point x="70.5" y="350" type="curve" smooth="yes"/>
      <point x="96" y="531.5"/>
      <point x="212.5" y="710"/>
      <point x="382" y="709.5" type="curve" smooth="yes"/>
      <point x="553.5" y="709"/>
      <point x="597.5" y="517.5"/>
      <point x="577" y="350" type="curve" smooth="yes"/>
      <point x="551.5" y="168.5"/>
      <point x="435" y="-10"/>
      <point x="265.5" y="-9.5" type="curve" smooth="yes"/>
      <point x="94" y="-9"/>
      <point x="50" y="182.5"/>
    </contour>
  </outline>
</glyph>
<glyph name="one" format="2">
  <advance width="436"/>
  <unicode hex="0031"/>
  <outline>
    <contour>
      <point x="144.5" y="561.5" type="line"/>
      <point x="161" y="651" type="line"/>
      <point x="406" y="710.5" type="line"/>
      <point x="283.5" y="0" type="line"/>
      <point x="199.5" y="0" type="line"/>
      <point x="303.5" y="606.5" type="line"/>
    </contour>
  </outline>
</glyph>
<glyph name="three" format="2">
  <advance width="529"/>
  <unicode hex="0033"/>
  <outline>
    <contour>
      <point x="281.5" y="345.5" type="curve"/>
      <point x="289" y="400" type="line"/>
      <point x="371" y="406"/>
      <point x="432.5" y="450"/>
      <point x="445.5" y="521" type="curve" smooth="yes"/>
      <point x="454.5" y="580"/>
      <point x="428.5" y="631.5"/>
      <point x="362.5" y="632.5" type="curve" smooth="yes"/>
      <point x="296" y="633.5"/>
      <point x="246.5" y="583.5"/>
      <point x="231" y="526.5" type="curve"/>
      <point x="150.5" y="527" type="line"/>
      <point x="171" y="630.5"/>
      <point x="253.5" y="710"/>
      <point x="368" y="709.5" type="curve" smooth="yes"/>
      <point x="479.5" y="709"/>
      <point x="545" y="621"/>
      <point x="531" y="523.5" type="curve" smooth="yes"/>
      <point x="513.5" y="414.5"/>
      <point x="405.5" y="350"/>
    </contour>
    <contour>
      <point x="258.5" y="-9.5" type="curve" smooth="yes"/>
      <point x="132" y="-9.5"/>
      <point x="60" y="75"/>
      <point x="68.5" y="185" type="curve"/>
      <point x="152.5" y="184.5" type="line"/>
      <point x="149" y="119"/>
      <point x="189.5" y="71"/>
      <point x="265.5" y="70.5" type="curve" smooth="yes"/>
      <point x="342.5" y="70"/>
      <point x="403.5" y="122.5"/>
      <point x="414.5" y="195" type="curve" smooth="yes"/>
      <point x="428.5" y="281.5"/>
      <point x="360" y="320"/>
      <point x="278" y="325" type="curve"/>
      <point x="286" y="379.5" type="line"/>
      <point x="410.5" y="375.5"/>
      <point x="517" y="319"/>
      <point x="498.5" y="184.5" type="curve" smooth="yes"/>
      <point x="482.5" y="69"/>
      <point x="379" y="-9.5"/>
    </contour>
  </outline>
</glyph>
<glyph name="seven" format="2">
  <advance width="509"/>
  <unicode hex="0037"/>
  <outline>
    <contour>
      <point x="106" y="620" type="line"/>
      <point x="119" y="700" type="line"/>
      <point x="597.5" y="699.5" type="line"/>
      <point x="163.5" y="0" type="line"/>
      <point x="73.5" y="0" type="line"/>
      <point x="458" y="619.5" type="line"/>
    </contour>
  </outline>
</glyph>
<glyph name="Q" format="2">
  <advance width="766"/>
  <unicode hex="0051"/>
  <outline>
    <contour>
      <point x="159.5" y="350" type="curve" smooth="yes"/>
      <point x="137.5" y="209"/>
      <point x="213" y="76.5"/>
      <point x="366" y="75.5" type="curve" smooth="yes"/>
      <point x="521" y="74.5"/>
      <point x="647.5" y="201"/>
      <point x="672.5" y="350" type="curve" smooth="yes"/>
      <point x="694.5" y="491"/>
      <point x="619" y="623.5"/>
      <point x="466" y="624.5" type="curve" smooth="yes"/>
      <point x="311" y="625.5"/>
      <point x="184.5" y="499"/>
    </contour>
    <contour>
      <point x="70.5" y="350" type="curve" smooth="yes"/>
      <point x="101" y="546"/>
      <point x="270" y="710.5"/>
      <point x="474.5" y="710" type="curve" smooth="yes"/>
      <point x="676" y="709.5"/>
      <point x="789" y="537.5"/>
      <point x="761.5" y="350" type="curve" smooth="yes"/>
      <point x="731" y="154"/>
      <point x="562" y="-10.5"/>
      <point x="357.5" y="-10" type="curve" smooth="yes"/>
      <point x="156" y="-9.5"/>
      <point x="43" y="162.5"/>
    </contour>
    <contour>
      <point x="393.5" y="300" type="line"/>
      <point x="497" y="300" type="line"/>
      <point x="737" y="0" type="line"/>
      <point x="633.5" y="0" type="line"/>
    </contour>
  </outline>
</glyph>
<glyph name="R" format="2">
  <advance width="543"/>
  <unicode hex="0052"/>
  <outline>
    <contour>
      <point x="230.5" y="345" type="line"/>
      <point x="322" y="345" type="line"/>
      <point x="505.5" y="0" type="line"/>
      <point x="406.5" y="0" type="line"/>
    </contour>
    <contour>
      <point x="168.5" y="700" type="line"/>
      <point x="254" y="700" type="line"/>
      <point x="133" y="0" type="line"/>
      <point x="51" y="0" type="line"/>
    </contour>
    <contour>
      <point x="201.5" y="625" type="line"/>
      <point x="215" y="700" type="line"/>
      <point x="351.5" y="700" type="line" smooth="yes"/>
      <point x="478.5" y="700"/>
      <point x="569.5" y="614"/>
      <point x="550.5" y="489.5" type="curve" smooth="yes"/>
      <point x="531" y="362.5"/>
      <point x="416.5" y="280"/>
      <point x="285.5" y="280" type="curve" smooth="yes"/>
      <point x="142.5" y="280" type="line"/>
      <point x="156" y="355" type="line"/>
      <point x="292.5" y="355" type="line" smooth="yes"/>
      <point x="379.5" y="355"/>
      <point x="451.5" y="406.5"/>
      <point x="466.5" y="490" type="curve" smooth="yes"/>
      <point x="480.5" y="571"/>
      <point x="428" y="625"/>
      <point x="344.5" y="625" type="curve" smooth="yes"/>
    </contour>
  </outline>
</glyph>
<glyph name="U" format="2">
  <advance width="607"/>
  <unicode hex="0055"/>
  <outline>
    <contour>
      <point x="165" y="700" type="line"/>
      <point x="249" y="700" type="line"/>
      <point x="167.5" y="230" type="line" smooth="yes"/>
      <point x="156" y="144.5"/>
      <point x="188.989" y="70.5"/>
      <point x="286" y="70.5" type="curve" smooth="yes"/>
      <point x="394" y="70.5"/>
      <point x="448.962" y="139.823"/>
      <point x="463.5" y="230" type="curve" smooth="yes"/>
      <point x="544.5" y="700" type="line"/>
      <point x="628.5" y="700" type="line"/>
      <point x="548" y="230" type="line" smooth="yes"/>
      <point x="526.27" y="97.065"/>
      <point x="437.5" y="-9.5"/>
      <point x="279" y="-9.5" type="curve" smooth="yes"/>
      <point x="138" y="-9.5"/>
      <point x="64.5" y="102"/>
      <point x="84.5" y="230" type="curve" smooth="yes"/>
    </contour>
  </outline>
</glyph>
<glyph name="V" format="2">
  <advance width="640"/>
  <unicode hex="0056"/>
  <outline>
    <contour>
      <point x="325.5" y="158" type="line"/>
      <point x="633" y="699.5" type="line"/>
      <point x="728.5" y="699.5" type="line"/>
      <point x="298" y="-36.5" type="line"/>
      <point x="96" y="700" type="line"/>
      <point x="186.5" y="700" type="line"/>
    </contour>
  </outline>
</glyph>
<glyph name="grave" format="2">
  <advance width="363"/>
  <unicode hex="0060"/>
  <outline>
    <contour>
      <point x="156.5" y="661" type="line"/>
      <point x="234.5" y="700" type="line"/>
      <point x="358" y="539" type="line"/>
      <point x="311" y="510.5" type="line"/>
    </contour>
  </outline>
</glyph>
<glyph name="c" format="2">
  <advance width="463"/>
  <unicode hex="0063"/>
  <outline>
    <contour>
      <point x="126.5" y="230" type="curve" smooth="yes"/>
      <point x="114" y="144.5"/>
      <point x="160.5" y="67"/>
      <point x="250.5" y="65.5" type="curve" smooth="yes"/>
      <point x="322" y="64.5"/>
      <point x="385.5" y="103.5"/>
      <point x="421" y="148" type="curve"/>
      <point x="407" y="48.5" type="line"/>
      <point x="366" y="12.5"/>
      <point x="306.5" y="-9.5"/>
      <point x="244" y="-9.5" type="curve" smooth="yes"/>
      <point x="110.5" y="-9"/>
      <point x="29.5" y="102"/>
      <point x="46.5" y="230" type="curve" smooth="yes"/>
      <point x="64.5" y="363"/>
      <point x="177" y="469"/>
      <point x="312.5" y="469.5" type="curve" smooth="yes"/>
      <point x="371.5" y="469.5"/>
      <point x="427" y="449.5"/>
      <point x="462" y="411" type="curve"/>
      <point x="447.5" y="311" type="line"/>
      <point x="426.5" y="360.5"/>
      <point x="373.5" y="395"/>
      <point x="306.5" y="394.5" type="curve" smooth="yes"/>
      <point x="215" y="394"/>
      <point x="140.5" y="320.5"/>
    </contour>
  </outline>
</glyph>
<glyph name="i" format="2">
  <advance width="252"/>
  <unicode hex="0069"/>
  <outline>
    <contour>
      <point x="155.5" y="650" type="curve" smooth="yes"/>
      <point x="155.5" y="680"/>
      <point x="180" y="704.5"/>
      <point x="210" y="704.5" type="curve" smooth="yes"/>
      <point x="240" y="704.5"/>
      <point x="264.5" y="680"/>
      <point x="264.5" y="650" type="curve" smooth="yes"/>
      <point x="264.5" y="620"/>
      <point x="240" y="595.5"/>
      <point x="210" y="595.5" type="curve" smooth="yes"/>
      <point x="180" y="595.5"/>
      <point x="155.5" y="620"/>
    </contour>
    <contour>
      <point x="137" y="459.5" type="line"/>
      <point x="218" y="459.5" type="line"/>
      <point x="139.5" y="0" type="line"/>
      <point x="60.5" y="0" type="line"/>
    </contour>
  </outline>
</glyph>
<glyph name="s" format="2">
  <advance width="391"/>
  <unicode hex="0073"/>
  <outline>
    <contour>
      <point x="91.5" y="161.5" type="line"/>
      <point x="115" y="112"/>
      <point x="151" y="66.5"/>
      <point x="199.5" y="65.5" type="curve" smooth="yes"/>
      <point x="238.5" y="65"/>
      <point x="277.5" y="84.5"/>
      <point x="283" y="121.5" type="curve" smooth="yes"/>
      <point x="290.5" y="169.5"/>
      <point x="241.5" y="191.5"/>
      <point x="197.5" y="211" type="curve" smooth="yes"/>
      <point x="137.5" y="238"/>
      <point x="77.9835" y="269.147"/>
      <point x="87.5" y="348.5" type="curve" smooth="yes"/>
      <point x="97.5265" y="429.272"/>
      <point x="171" y="469.5"/>
      <point x="250" y="469.5" type="curve" smooth="yes"/>
      <point x="318.5" y="469.5"/>
      <point x="373" y="432.5"/>
      <point x="400" y="379" type="curve"/>
      <point x="333" y="339.5" type="line"/>
      <point x="313" y="369.5"/>
      <point x="281" y="396"/>
      <point x="244" y="396.5" type="curve" smooth="yes"/>
      <point x="208.5" y="397"/>
      <point x="169.5" y="383"/>
      <point x="164.5" y="348.5" type="curve" smooth="yes"/>
      <point x="157.5" y="303.5"/>
      <point x="221" y="288"/>
      <point x="261.5" y="270" type="curve" smooth="yes"/>
      <point x="322" y="242.5"/>
      <point x="374" y="198.5"/>
      <point x="365.5" y="127" type="curve" smooth="yes"/>
      <point x="355" y="36"/>
      <point x="284" y="-10.5"/>
      <point x="192.5" y="-10" type="curve" smooth="yes"/>
      <point x="108.999" y="-9.56396"/>
      <point x="52.5" y="50.5"/>
      <point x="25.5" y="124" type="curve"/>
    </contour>
  </outline>
</glyph>
<glyph name="t" format="2">
  <advance width="232"/>
  <unicode hex="0074"/>
  <outline>
    <contour>
      <point x="57.5" y="460" type="line"/>
      <point x="282" y="460" type="line"/>
      <point x="268.5" y="385" type="line"/>
      <point x="43.5" y="385" type="line"/>
    </contour>
    <contour>
      <point x="155" y="619.5" type="line"/>
      <point x="235.5" y="620" type="line"/>
      <point x="128" y="0" type="line"/>
      <point x="51" y="0" type="line"/>
    </contour>
  </outline>
</glyph>
<glyph name="yen" format="2">
  <advance width="562"/>
  <unicode hex="00A5"/>
  <outline>
    <contour>
      <point x="66.5" y="290.5" type="line"/>
      <point x="79" y="365" type="line"/>
      <point x="551" y="365" type="line"/>
      <point x="538.5" y="290" type="line"/>
    </contour>
    <contour>
      <point x="41" y="140.5" type="line"/>
      <point x="53" y="215" type="line"/>
      <point x="525.5" y="215" type="line"/>
      <point x="513" y="140" type="line"/>
    </contour>
    <contour>
      <point x="548" y="699.5" type="line"/>
      <point x="643.5" y="699.5" type="line"/>
      <point x="349.5" y="303.5" type="line"/>
      <point x="297.5" y="0" type="line"/>
      <point x="212" y="0" type="line"/>
      <point x="266" y="306" type="line"/>
      <point x="108" y="700" type="line"/>
      <point x="198.5" y="700" type="line"/>
      <point x="317" y="377.5" type="line"/>
    </contour>
  </outline>
</glyph>
<glyph name="brokenbar" format="2">
  <advance width="265"/>
  <unicode hex="00A6"/>
  <outline>
    <contour>
      <point x="188" y="694.5" type="line"/>
      <point x="261" y="694.5" type="line"/>
      <point x="220" y="455.5" type="line"/>
      <point x="147" y="455.5" type="line"/>
    </contour>
    <contour>
      <point x="184" y="244.5" type="line"/>
      <point x="143" y="5.5" type="line"/>
      <point x="70" y="5.5" type="line"/>
      <point x="111" y="244.5" type="line"/>
    </contour>
  </outline>
</glyph>
<glyph name="logicalnot" format="2">
  <advance width="601"/>
  <unicode hex="00AC"/>
  <outline>
    <contour>
      <point x="86" y="300" type="line"/>
      <point x="99.5" y="375" type="line"/>
      <point x="577" y="375" type="line"/>
      <point x="541.5" y="175.5" type="line"/>
      <point x="467.5" y="175.5" type="line"/>
      <point x="489.5" y="300" type="line"/>
    </contour>
  </outline>
</glyph>
<glyph name="uni00B2" format="2">
  <advance width="335"/>
  <unicode hex="00B2"/>
  <outline>
    <contour>
      <point x="45" y="283" type="line"/>
      <point x="271.5" y="494" type="line" smooth="yes"/>
      <point x="300" y="520.5"/>
      <point x="326" y="550"/>
      <point x="332" y="586" type="curve" smooth="yes"/>
      <point x="337.5" y="622"/>
      <point x="319" y="658.5"/>
      <point x="273.5" y="660.5" type="curve" smooth="yes"/>
      <point x="216.5" y="663.5"/>
      <point x="178.5" y="613"/>
      <point x="166" y="559" type="curve"/>
      <point x="115" y="559" type="line"/>
      <point x="132" y="640"/>
      <point x="188.5" y="709.5"/>
      <point x="277" y="708.5" type="curve" smooth="yes"/>
      <point x="358.5" y="708"/>
      <point x="392.5" y="641.5"/>
      <point x="382.5" y="581.5" type="curve" smooth="yes"/>
      <point x="375" y="536.5"/>
      <point x="345" y="498.5"/>
      <point x="310" y="466" type="curve" smooth="yes"/>
      <point x="158" y="330.5" type="line"/>
      <point x="341" y="329.5" type="line"/>
      <point x="333" y="282.5" type="line"/>
    </contour>
  </outline>
</glyph>
<glyph name="cedilla" format="2">
  <advance width="339"/>
  <unicode hex="00B8"/>
  <outline>
    <contour>
      <point x="172" y="59" type="line"/>
      <point x="233" y="59" type="line"/>
      <point x="151" y="-52" type="line"/>
      <point x="153.5" y="-52"/>
      <point x="155.5" y="-52"/>
      <point x="158" y="-52" type="curve" smooth="yes"/>
      <point x="194" y="-55.5"/>
      <point x="223.5" y="-83"/>
      <point x="219" y="-127" type="curve" smooth="yes"/>
      <point x="212.5" y="-184"/>
      <point x="154" y="-220"/>
      <point x="100.5" y="-219.5" type="curve" smooth="yes"/>
      <point x="65" y="-219.5"/>
      <point x="43" y="-206"/>
      <point x="18" y="-180.5" type="curve"/>
      <point x="55.5" y="-142.5" type="line"/>
      <point x="71.5" y="-156"/>
      <point x="83" y="-166"/>
      <point x="105.5" y="-166" type="curve" smooth="yes"/>
      <point x="133" y="-166"/>
      <point x="160" y="-148.5"/>
      <point x="163" y="-125.5" type="curve" smooth="yes"/>
      <point x="166" y="-103"/>
      <point x="148" y="-90.5"/>
      <point x="122" y="-90" type="curve" smooth="yes"/>
      <point x="106.5" y="-89"/>
      <point x="82" y="-96.5"/>
      <point x="62" y="-107" type="curve"/>
    </contour>
  </outline>
</glyph>
<glyph name="threequarters" format="2">
  <advance width="795"/>
  <unicode hex="00BE"/>
  <outline>
    <contour>
      <point x="755" y="699" type="line"/>
      <point x="820.5" y="698.5" type="line"/>
      <point x="198" y="0" type="line"/>
      <point x="132.5" y="0" type="line"/>
    </contour>
    <contour>
      <point x="197.5" y="488" type="curve"/>
      <point x="202.5" y="520" type="line"/>
      <point x="251.5" y="525"/>
      <point x="290" y="549.5"/>
      <point x="298.5" y="593" type="curve" smooth="yes"/>
      <point x="304" y="628"/>
      <point x="288.5" y="658"/>
      <point x="250" y="659.5" type="curve" smooth="yes"/>
      <point x="210.5" y="661.5"/>
      <point x="180" y="629.5"/>
      <point x="169.5" y="597" type="curve"/>
      <point x="120.5" y="597.5" type="line"/>
      <point x="135.5" y="657.5"/>
      <point x="184" y="706.5"/>
      <point x="253" y="705.5" type="curve" smooth="yes"/>
      <point x="320" y="704.5"/>
      <point x="359" y="651.5"/>
      <point x="349.5" y="593.5" type="curve" smooth="yes"/>
      <point x="338" y="528"/>
      <point x="271.5" y="492.5"/>
    </contour>
    <contour>
      <point x="181.5" y="274.5" type="curve" smooth="yes"/>
      <point x="104" y="274.5"/>
      <point x="64.5" y="325.5"/>
      <point x="68" y="391" type="curve"/>
      <point x="118.5" y="391" type="line"/>
      <point x="118.5" y="352.5"/>
      <point x="138.5" y="323.5"/>
      <point x="184.5" y="322.5" type="curve" smooth="yes"/>
      <point x="230" y="321.5"/>
      <point x="269.5" y="354.5"/>
      <point x="276" y="397.5" type="curve" smooth="yes"/>
      <point x="284.5" y="450"/>
      <point x="243.5" y="470.5"/>
      <point x="195" y="475" type="curve"/>
      <point x="200.5" y="507.5" type="line"/>
      <point x="275" y="503.5"/>
      <point x="339" y="471.5"/>
      <point x="327" y="390.5" type="curve" smooth="yes"/>
      <point x="317" y="322"/>
      <point x="253" y="274.5"/>
    </contour>
    <contour>
      <point x="438.5" y="85" type="line"/>
      <point x="484.5" y="128" type="line"/>
      <point x="661" y="129" type="line"/>
      <point x="671" y="129" type="line"/>
      <point x="757" y="128.5" type="line"/>
      <point x="749.5" y="84.5" type="line"/>
    </contour>
    <contour>
      <point x="492.5" y="85" type="line"/>
      <point x="438" y="85.5" type="line"/>
      <point x="720.5" y="419" type="line"/>
      <point x="742.5" y="419.5" type="line"/>
      <point x="671.5" y="0" type="line"/>
      <point x="620.5" y="0" type="line"/>
      <point x="638.5" y="106" type="line"/>
      <point x="639.5" y="112" type="line"/>
      <point x="672" y="301.5" type="line"/>
    </contour>
  </outline>
</glyph>
<glyph name="Aacute" format="2">
  <advance width="640"/>
  <unicode hex="00C1"/>
  <outline>
    <contour>
      <point x="151.5" y="211" type="line"/>
      <point x="193" y="289.5" type="line"/>
      <point x="495.5" y="290" type="line"/>
      <point x="511.5" y="210" type="line"/>
    </contour>
    <contour>
      <point x="388" y="542" type="line"/>
      <point x="225.5" y="264" type="line"/>
      <point x="215" y="246" type="line"/>
      <point x="71" y="0" type="line"/>
      <point x="-25" y="0" type="line"/>
      <point x="418.5" y="736.5" type="line"/>
      <point x="608" y="0" type="line"/>
      <point x="516.5" y="0" type="line"/>
      <point x="458.5" y="240" type="line"/>
      <point x="454.5" y="260" type="line"/>
    </contour>
    <contour>
      <point x="581.5" y="942.5" type="line"/>
      <point x="382.5" y="796" type="line"/>
      <point x="341" y="826.5" type="line"/>
      <point x="512.5" y="984.5" type="line"/>
    </contour>
  </outline>
</glyph>
<glyph name="Atilde" format="2">
  <advance width="640"/>
  <unicode hex="00C3"/>
  <outline>
    <contour>
      <point x="151.5" y="211" type="line"/>
      <point x="193" y="289.5" type="line"/>
      <point x="495.5" y="290" type="line"/>
      <point x="511.5" y="210" type="line"/>
    </contour>
    <contour>
      <point x="388" y="542" type="line"/>
      <point x="225.5" y="264" type="line"/>
      <point x="215" y="246" type="line"/>
      <point x="71" y="0" type="line"/>
      <point x="-25" y="0" type="line"/>
      <point x="418.5" y="736.5" type="line"/>
      <point x="608" y="0" type="line"/>
      <point x="516.5" y="0" type="line"/>
      <point x="458.5" y="240" type="line"/>
      <point x="454.5" y="260" type="line"/>
    </contour>
    <contour>
      <point x="270.5" y="813.5" type="line"/>
      <point x="290" y="856"/>
      <point x="335.5" y="895"/>
      <point x="384" y="893.5" type="curve" smooth="yes"/>
      <point x="436" y="892.5"/>
      <point x="449.5" y="846"/>
      <point x="496" y="847.5" type="curve" smooth="yes"/>
      <point x="519.5" y="848.5"/>
      <point x="540.5" y="870"/>
      <point x="560" y="894.5" type="curve"/>
      <point x="599.5" y="850.5" type="line"/>
      <point x="576.5" y="816.5"/>
      <point x="535" y="777.5"/>
      <point x="486" y="779.5" type="curve" smooth="yes"/>
      <point x="439.5" y="781"/>
      <point x="418.5" y="826.5"/>
      <point x="376.5" y="825.5" type="curve" smooth="yes"/>
      <point x="341" y="824.5"/>
      <point x="327" y="793.5"/>
      <point x="318.5" y="775.5" type="curve"/>
    </contour>
  </outline>
</glyph>
<glyph name="AE" format="2">
  <advance width="931"/>
  <unicode hex="00C6"/>
  <outline>
    <contour>
      <point x="219.5" y="210.5" type="line"/>
      <point x="233" y="290" type="line"/>
      <point x="525.5" y="290" type="line"/>
      <point x="512" y="210" type="line"/>
    </contour>
    <contour>
      <point x="516.5" y="700" type="line"/>
      <point x="575.5" y="657.5" type="line"/>
      <point x="71.5" y="0" type="line"/>
      <point x="-22.5" y="0" type="line"/>
    </contour>
    <contour>
      <point x="494.5" y="0" type="line"/>
      <point x="507.5" y="80" type="line"/>
      <point x="852" y="80" type="line"/>
      <point x="838" y="0" type="line"/>
    </contour>
    <contour>
      <point x="610.5" y="620" type="line"/>
      <point x="516.5" y="700" type="line"/>
      <point x="957.5" y="700" type="line"/>
      <point x="944" y="620" type="line"/>
    </contour>
    <contour>
      <point x="552.5" y="340.5" type="line"/>
      <point x="565.5" y="420" type="line"/>
      <point x="890.5" y="420" type="line"/>
      <point x="877" y="340" type="line"/>
    </contour>
    <contour>
      <point x="566.5" y="699.5" type="line"/>
      <point x="652" y="700" type="line"/>
      <point x="531" y="0" type="line"/>
      <point x="448.5" y="0" type="line"/>
    </contour>
  </outline>
</glyph>
<glyph name="Ccedilla" format="2">
  <advance width="664"/>
  <unicode hex="00C7"/>
  <outline>
    <contour>
      <point x="159.5" y="350" type="curve" smooth="yes"/>
      <point x="138" y="208"/>
      <point x="217" y="77"/>
      <point x="361" y="75.5" type="curve" smooth="yes"/>
      <point x="457.5" y="74.5"/>
      <point x="539" y="120"/>
      <point x="600" y="178" type="curve"/>
      <point x="582.5" y="66.5" type="line"/>
      <point x="517.5" y="17.5"/>
      <point x="446.5" y="-10.5"/>
      <point x="352.5" y="-10" type="curve" smooth="yes"/>
      <point x="157" y="-9"/>
      <point x="43" y="161.5"/>
      <point x="70.5" y="350" type="curve" smooth="yes"/>
      <point x="101" y="548"/>
      <point x="270.5" y="709"/>
      <point x="469.5" y="710" type="curve" smooth="yes"/>
      <point x="558.5" y="710.5"/>
      <point x="621.5" y="685.5"/>
      <point x="678" y="632.5" type="curve"/>
      <point x="660" y="521" type="line"/>
      <point x="617" y="586"/>
      <point x="549.5" y="624.5"/>
      <point x="461" y="624.5" type="curve" smooth="yes"/>
      <point x="315" y="624"/>
      <point x="184.5" y="501"/>
    </contour>
    <contour>
      <point x="350" y="58" type="line"/>
      <point x="410.5" y="58" type="line"/>
      <point x="329" y="-53" type="line"/>
      <point x="331.5" y="-53"/>
      <point x="334" y="-53"/>
      <point x="336.5" y="-53" type="curve" smooth="yes"/>
      <point x="372" y="-56.5"/>
      <point x="401.5" y="-84.5"/>
      <point x="396.5" y="-128" type="curve" smooth="yes"/>
      <point x="389.5" y="-184.5"/>
      <point x="332.5" y="-220.5"/>
      <point x="279" y="-220.5" type="curve" smooth="yes"/>
      <point x="243.5" y="-220.5"/>
      <point x="221" y="-206.5"/>
      <point x="195.5" y="-181.5" type="curve"/>
      <point x="233.5" y="-143.5" type="line"/>
      <point x="249.5" y="-157"/>
      <point x="261.5" y="-167"/>
      <point x="284" y="-167" type="curve" smooth="yes"/>
      <point x="311.5" y="-167"/>
      <point x="338" y="-149.5"/>
      <point x="341" y="-126.5" type="curve" smooth="yes"/>
      <point x="344" y="-104"/>
      <point x="326.5" y="-91.5"/>
      <point x="300.5" y="-91" type="curve" smooth="yes"/>
      <point x="285" y="-90"/>
      <point x="259.5" y="-97.5"/>
      <point x="239.5" y="-108" type="curve"/>
    </contour>
  </outline>
</glyph>
<glyph name="Igrave" format="2">
  <advance width="237"/>
  <unicode hex="00CC"/>
  <outline>
    <contour>
      <point x="168.5" y="699.5" type="line"/>
      <point x="254" y="700" type="line"/>
      <point x="133" y="0" type="line"/>
      <point x="51" y="0" type="line"/>
    </contour>
    <contour>
      <point x="121.5" y="921" type="line"/>
      <point x="201" y="960" type="line"/>
      <point x="321.5" y="799" type="line"/>
      <point x="273.5" y="770" type="line"/>
    </contour>
  </outline>
</glyph>
<glyph name="Otilde" format="2">
  <advance width="766"/>
  <unicode hex="00D5"/>
  <outline>
    <contour>
      <point x="159.5" y="350" type="curve" smooth="yes"/>
      <point x="137.5" y="209"/>
      <point x="213" y="76.5"/>
      <point x="366" y="75.5" type="curve" smooth="yes"/>
      <point x="521" y="74.5"/>
      <point x="647.5" y="201"/>
      <point x="672.5" y="350" type="curve" smooth="yes"/>
      <point x="694.5" y="491"/>
      <point x="619" y="623.5"/>
      <point x="466" y="624.5" type="curve" smooth="yes"/>
      <point x="311" y="625.5"/>
      <point x="184.5" y="499"/>
    </contour>
    <contour>
      <point x="70.5" y="350" type="curve" smooth="yes"/>
      <point x="101" y="546"/>
      <point x="270" y="710.5"/>
      <point x="474.5" y="710" type="curve" smooth="yes"/>
      <point x="676" y="709.5"/>
      <point x="789" y="537.5"/>
      <point x="761.5" y="350" type="curve" smooth="yes"/>
      <point x="731" y="154"/>
      <point x="562" y="-10.5"/>
      <point x="357.5" y="-10" type="curve" smooth="yes"/>
      <point x="156" y="-9.5"/>
      <point x="43" y="162.5"/>
    </contour>
    <contour>
      <point x="333" y="808.5" type="line"/>
      <point x="333.5" y="853"/>
      <point x="409.5" y="889"/>
      <point x="446" y="888.5" type="curve" smooth="yes"/>
      <point x="498" y="887.5"/>
      <point x="511.5" y="841"/>
      <point x="558.5" y="842.5" type="curve" smooth="yes"/>
      <point x="582" y="843.5"/>
      <point x="602.5" y="865"/>
      <point x="622" y="889.5" type="curve"/>
      <point x="661.5" y="845.5" type="line"/>
      <point x="638.5" y="811.5"/>
      <point x="597.5" y="772.5"/>
      <point x="548.5" y="774.5" type="curve" smooth="yes"/>
      <point x="502" y="776"/>
      <point x="481" y="821.5"/>
      <point x="439" y="820.5" type="curve" smooth="yes"/>
      <point x="403.5" y="819.5"/>
      <point x="389" y="788.5"/>
      <point x="380.5" y="770.5" type="curve"/>
    </contour>
  </outline>
</glyph>
<glyph name="Oslash" format="2">
  <advance width="766"/>
  <unicode hex="00D8"/>
  <outline>
    <contour>
      <point x="159.5" y="350" type="curve" smooth="yes"/>
      <point x="137.5" y="209"/>
      <point x="213" y="76.5"/>
      <point x="366" y="75.5" type="curve" smooth="yes"/>
      <point x="521" y="74.5"/>
      <point x="647.5" y="201"/>
      <point x="672.5" y="350" type="curve" smooth="yes"/>
      <point x="694.5" y="491"/>
      <point x="619" y="623.5"/>
      <point x="466" y="624.5" type="curve" smooth="yes"/>
      <point x="311" y="625.5"/>
      <point x="184.5" y="499"/>
    </contour>
    <contour>
      <point x="70.5" y="350" type="curve" smooth="yes"/>
      <point x="101" y="546"/>
      <point x="270" y="710.5"/>
      <point x="474.5" y="710" type="curve" smooth="yes"/>
      <point x="676" y="709.5"/>
      <point x="789" y="537.5"/>
      <point x="761.5" y="350" type="curve" smooth="yes"/>
      <point x="731" y="154"/>
      <point x="562" y="-10.5"/>
      <point x="357.5" y="-10" type="curve" smooth="yes"/>
      <point x="156" y="-9.5"/>
      <point x="43" y="162.5"/>
    </contour>
    <contour>
      <point x="766.5" y="749.5" type="line"/>
      <point x="820" y="708.5" type="line"/>
      <point x="61.5" y="-49.5" type="line"/>
      <point x="9" y="-8.5" type="line"/>
    </contour>
  </outline>
</glyph>
<glyph name="atilde" format="2">
  <advance width="553"/>
  <unicode hex="00E3"/>
  <outline>
    <contour>
      <point x="462.5" y="459.5" type="line"/>
      <point x="538.5" y="460" type="line"/>
      <point x="458.5" y="0" type="line"/>
      <point x="385.5" y="0" type="line"/>
    </contour>
    <contour>
      <point x="45" y="230" type="curve" smooth="yes"/>
      <point x="64.5" y="365.5"/>
      <point x="175.5" y="471"/>
      <point x="305.5" y="470" type="curve" smooth="yes"/>
      <point x="429" y="469"/>
      <point x="471.5" y="353.5"/>
      <point x="455.5" y="230" type="curve" smooth="yes"/>
      <point x="437.5" y="99"/>
      <point x="352" y="-9"/>
      <point x="229.5" y="-9.5" type="curve" smooth="yes"/>
      <point x="100" y="-10"/>
      <point x="27" y="100"/>
    </contour>
    <contour>
      <point x="125" y="230" type="curve" smooth="yes"/>
      <point x="111.5" y="140.5"/>
      <point x="157.5" y="65.5"/>
      <point x="246" y="65.5" type="curve" smooth="yes"/>
      <point x="326" y="65.5"/>
      <point x="405" y="137.5"/>
      <point x="419.5" y="230" type="curve" smooth="yes"/>
      <point x="431.5" y="317"/>
      <point x="386.5" y="392.5"/>
      <point x="308" y="394.5" type="curve" smooth="yes"/>
      <point x="218.5" y="396.5"/>
      <point x="140" y="324"/>
    </contour>
    <contour>
      <point x="183.5" y="568.5" type="line"/>
      <point x="204" y="613"/>
      <point x="250" y="648.5"/>
      <point x="296.5" y="648.5" type="curve" smooth="yes"/>
      <point x="348.526" y="648.5"/>
      <point x="362" y="601"/>
      <point x="409" y="602.5" type="curve" smooth="yes"/>
      <point x="432.5" y="603.5"/>
      <point x="453" y="625"/>
      <point x="472.5" y="649.5" type="curve"/>
      <point x="512" y="605.5" type="line"/>
      <point x="489" y="571.5"/>
      <point x="447.5" y="532.5"/>
      <point x="398.5" y="534.5" type="curve" smooth="yes"/>
      <point x="352" y="536"/>
      <point x="331.5" y="581.5"/>
      <point x="289.5" y="580.5" type="curve" smooth="yes"/>
      <point x="254" y="579.5"/>
      <point x="239.5" y="548.5"/>
      <point x="231" y="530.5" type="curve"/>
    </contour>
  </outline>
</glyph>
<glyph name="ntilde" format="2">
  <advance width="509"/>
  <unicode hex="00F1"/>
  <outline>
    <contour>
      <point x="203" y="460" type="line"/>
      <point x="123.5" y="0" type="line"/>
      <point x="44" y="0" type="line"/>
      <point x="124" y="460" type="line"/>
    </contour>
    <contour>
      <point x="380" y="280" type="line" smooth="yes"/>
      <point x="387.5" y="342.5"/>
      <point x="373" y="393"/>
      <point x="307" y="394.5" type="curve" smooth="yes"/>
      <point x="236.5" y="396"/>
      <point x="187.5" y="341.5"/>
      <point x="171.5" y="281" type="curve"/>
      <point x="135.5" y="281" type="line"/>
      <point x="155.5" y="380"/>
      <point x="232" y="469.5"/>
      <point x="333.5" y="469.5" type="curve" smooth="yes"/>
      <point x="433.5" y="469.5"/>
      <point x="471.5" y="390.5"/>
      <point x="459.5" y="290" type="curve"/>
      <point x="409.5" y="0" type="line"/>
      <point x="332" y="0" type="line"/>
    </contour>
    <contour>
      <point x="164" y="568.5" type="line"/>
      <point x="183.5" y="611"/>
      <point x="228.5" y="650"/>
      <point x="277" y="648.5" type="curve" smooth="yes"/>
      <point x="329" y="647.5"/>
      <point x="343" y="601"/>
      <point x="389.5" y="602.5" type="curve" smooth="yes"/>
      <point x="413" y="603.5"/>
      <point x="433.5" y="625"/>
      <point x="453" y="649.5" type="curve"/>
      <point x="492.5" y="605.5" type="line"/>
      <point x="469.5" y="571.5"/>
      <point x="428" y="532.5"/>
      <point x="379" y="534.5" type="curve" smooth="yes"/>
      <point x="332.5" y="536"/>
      <point x="312" y="581.5"/>
      <point x="270" y="580.5" type="curve" smooth="yes"/>
      <point x="234.5" y="579.5"/>
      <point x="220" y="548.5"/>
      <point x="211.5" y="530.5" type="curve"/>
    </contour>
  </outline>
</glyph>
<glyph name="odieresis" format="2">
  <advance width="529"/>
  <unicode hex="00F6"/>
  <outline>
    <contour>
      <point x="45" y="230" type="curve" smooth="yes"/>
      <point x="65" y="362"/>
      <point x="179.5" y="469.5"/>
      <point x="315" y="469.5" type="curve" smooth="yes"/>
      <point x="449" y="469.5"/>
      <point x="527.5" y="357.5"/>
      <point x="509" y="230" type="curve" smooth="yes"/>
      <point x="489" y="98"/>
      <point x="374.5" y="-9.5"/>
      <point x="239" y="-9.5" type="curve" smooth="yes"/>
      <point x="105" y="-9.5"/>
      <point x="26.5" y="102.5"/>
    </contour>
    <contour>
      <point x="125" y="230" type="curve" smooth="yes"/>
      <point x="111.5" y="145.5"/>
      <point x="155.5" y="66"/>
      <point x="246" y="65.5" type="curve" smooth="yes"/>
      <point x="337.5" y="65"/>
      <point x="414" y="140.5"/>
      <point x="429" y="230" type="curve" smooth="yes"/>
      <point x="442.5" y="314.5"/>
      <point x="398.5" y="394"/>
      <point x="308" y="394.5" type="curve" smooth="yes"/>
      <point x="216.5" y="395"/>
      <point x="140" y="319.5"/>
    </contour>
    <contour>
      <point x="386" y="616" type="curve" smooth="yes"/>
      <point x="389" y="643"/>
      <point x="420.5" y="671"/>
      <point x="448" y="669.5" type="curve" smooth="yes"/>
      <point x="476.5" y="668"/>
      <point x="496.5" y="642"/>
      <point x="493.5" y="614" type="curve" smooth="yes"/>
      <point x="490.5" y="587"/>
      <point x="459" y="559"/>
      <point x="431.5" y="560.5" type="curve" smooth="yes"/>
      <point x="403" y="562"/>
      <point x="383" y="588"/>
    </contour>
    <contour>
      <point x="192" y="616" type="curve" smooth="yes"/>
      <point x="195" y="643"/>
      <point x="226.5" y="671"/>
      <point x="254" y="669.5" type="curve" smooth="yes"/>
      <point x="282.5" y="668"/>
      <point x="302.5" y="642"/>
      <point x="299.5" y="614" type="curve" smooth="yes"/>
      <point x="296.5" y="587"/>
      <point x="265" y="559"/>
      <point x="237.5" y="560.5" type="curve" smooth="yes"/>
      <point x="209" y="562"/>
      <point x="189" y="588"/>
    </contour>
  </outline>
</glyph>
<glyph name="divide" format="2">
  <advance width="604"/>
  <unicode hex="00F7"/>
  <outline>
    <contour>
      <point x="296.5" y="451" type="curve" smooth="yes"/>
      <point x="299.5" y="478"/>
      <point x="331" y="506"/>
      <point x="358.5" y="504.5" type="curve" smooth="yes"/>
      <point x="387" y="503"/>
      <point x="407.5" y="477"/>
      <point x="404.5" y="449" type="curve" smooth="yes"/>
      <point x="401.5" y="422"/>
      <point x="370" y="394"/>
      <point x="342.5" y="395.5" type="curve" smooth="yes"/>
      <point x="314" y="397"/>
      <point x="293.5" y="423"/>
    </contour>
    <contour>
      <point x="232" y="71" type="curve" smooth="yes"/>
      <point x="235" y="98"/>
      <point x="266.5" y="126"/>
      <point x="294" y="124.5" type="curve" smooth="yes"/>
      <point x="322.5" y="123"/>
      <point x="342.5" y="97"/>
      <point x="339.5" y="69" type="curve" smooth="yes"/>
      <point x="336.5" y="42"/>
      <point x="305" y="14"/>
      <point x="277.5" y="15.5" type="curve" smooth="yes"/>
      <point x="249" y="17"/>
      <point x="229" y="43"/>
    </contour>
    <contour>
      <point x="70" y="225.5" type="line"/>
      <point x="83" y="305" type="line"/>
      <point x="570" y="305" type="line"/>
      <point x="556.5" y="225" type="line"/>
    </contour>
  </outline>
</glyph>
<glyph name="ucircumflex" format="2">
  <advance width="509"/>
  <unicode hex="00FB"/>
  <outline>
    <contour>
      <point x="330.5" y="0" type="line"/>
      <point x="410" y="460" type="line"/>
      <point x="489.5" y="460" type="line"/>
      <point x="410" y="0" type="line"/>
    </contour>
    <contour>
      <point x="154" y="180" type="line" smooth="yes"/>
      <point x="146.5" y="117.5"/>
      <point x="161" y="67"/>
      <point x="226.5" y="65.5" type="curve" smooth="yes"/>
      <point x="297" y="64"/>
      <point x="346" y="118.5"/>
      <point x="362" y="179" type="curve"/>
      <point x="398.5" y="179" type="line"/>
      <point x="378.5" y="80"/>
      <point x="301.5" y="-9.5"/>
      <point x="200" y="-9.5" type="curve" smooth="yes"/>
      <point x="100" y="-9.5"/>
      <point x="62" y="69.5"/>
      <point x="74" y="170" type="curve"/>
      <point x="124.5" y="460" type="line"/>
      <point x="201.5" y="459.5" type="line"/>
    </contour>
    <contour>
      <point x="340" y="644.5" type="line"/>
      <point x="216" y="550.5" type="line"/>
      <point x="171.5" y="591.5" type="line"/>
      <point x="350" y="730" type="line"/>
      <point x="484" y="589" type="line"/>
      <point x="430" y="550.5" type="line"/>
    </contour>
  </outline>
</glyph>
<glyph name="yacute" format="2">
  <advance width="426"/>
  <unicode hex="00FD"/>
  <outline>
    <contour>
      <point x="481" y="459.5" type="line"/>
      <point x="72.5" y="-219.5" type="line"/>
      <point x="-18.5" y="-219.5" type="line"/>
      <point x="155.5" y="67.5" type="line"/>
      <point x="52" y="460" type="line"/>
      <point x="143.5" y="460" type="line"/>
      <point x="224" y="100" type="line"/>
      <point x="191.5" y="104.5" type="line"/>
      <point x="390" y="459.5" type="line"/>
    </contour>
    <contour>
      <point x="432.5" y="697.5" type="line"/>
      <point x="233.5" y="551" type="line"/>
      <point x="192.5" y="581.5" type="line"/>
      <point x="364" y="739.5" type="line"/>
    </contour>
  </outline>
</glyph>
<glyph name="Cacute" format="2">
  <advance width="664"/>
  <unicode hex="0106"/>
  <outline>
    <contour>
      <point x="159.5" y="350" type="curve" smooth="yes"/>
      <point x="138" y="208"/>
      <point x="217" y="77"/>
      <point x="361" y="75.5" type="curve" smooth="yes"/>
      <point x="457.5" y="74.5"/>
      <point x="539" y="120"/>
      <point x="600" y="178" type="curve"/>
      <point x="582.5" y="66.5" type="line"/>
      <point x="517.5" y="17.5"/>
      <point x="446.5" y="-10.5"/>
      <point x="352.5" y="-10" type="curve" smooth="yes"/>
      <point x="157" y="-9"/>
      <point x="43" y="161.5"/>
      <point x="70.5" y="350" type="curve" smooth="yes"/>
      <point x="101" y="548"/>
      <point x="270.5" y="709"/>
      <point x="469.5" y="710" type="curve" smooth="yes"/>
      <point x="558.5" y="710.5"/>
      <point x="621.5" y="685.5"/>
      <point x="678" y="632.5" type="curve"/>
      <point x="660" y="521" type="line"/>
      <point x="617" y="586"/>
      <point x="549.5" y="624.5"/>
      <point x="461" y="624.5" type="curve" smooth="yes"/>
      <point x="315" y="624"/>
      <point x="184.5" y="501"/>
    </contour>
    <contour>
      <point x="635" y="917.5" type="line"/>
      <point x="436.5" y="771" type="line"/>
      <point x="395" y="801.5" type="line"/>
      <point x="566.5" y="959.5" type="line"/>
    </contour>
  </outline>
</glyph>
<glyph name="cacute" format="2">
  <advance width="463"/>
  <unicode hex="0107"/>
  <outline>
    <contour>
      <point x="120" y="230" type="curve" smooth="yes"/>
      <point x="106.5" y="145"/>
      <point x="151.5" y="67"/>
      <point x="241.5" y="65.5" type="curve" smooth="yes"/>
      <point x="313.5" y="64.5"/>
      <point x="377.5" y="103.5"/>
      <point x="413.5" y="148" type="curve"/>
      <point x="398" y="48.5" type="line"/>
      <point x="357" y="12.5"/>
      <point x="296.5" y="-9.5"/>
      <point x="234" y="-9.5" type="curve" smooth="yes"/>
      <point x="100" y="-9"/>
      <point x="22" y="102.5"/>
      <point x="40.5" y="230" type="curve" smooth="yes"/>
      <point x="60.5" y="363"/>
      <point x="174.5" y="469"/>
      <point x="310.5" y="469.5" type="curve" smooth="yes"/>
      <point x="369.5" y="469.5"/>
      <point x="424" y="449"/>
      <point x="458.5" y="410.5" type="curve"/>
      <point x="442.5" y="311" type="line"/>
      <point x="422.5" y="361"/>
      <point x="370" y="395"/>
      <point x="303.5" y="394.5" type="curve" smooth="yes"/>
      <point x="212" y="394"/>
      <point x="135.5" y="320"/>
    </contour>
    <contour>
      <point x="476" y="677.5" type="line"/>
      <point x="277" y="531" type="line"/>
      <point x="235.5" y="561.5" type="line"/>
      <point x="407" y="719.5" type="line"/>
    </contour>
  </outline>
</glyph>
<glyph name="Eogonek" format="2">
  <advance width="533"/>
  <unicode hex="0118"/>
  <outline>
    <contour>
      <point x="96.5" y="0" type="line"/>
      <point x="109.5" y="80" type="line"/>
      <point x="454" y="80" type="line"/>
      <point x="440.5" y="0" type="line"/>
    </contour>
    <contour>
      <point x="202.5" y="620.5" type="line"/>
      <point x="215.5" y="700" type="line"/>
      <point x="559.5" y="700" type="line"/>
      <point x="546" y="620" type="line"/>
    </contour>
    <contour>
      <point x="154.5" y="340.5" type="line"/>
      <point x="168" y="420" type="line"/>
      <point x="492.5" y="420" type="line"/>
      <point x="479" y="340" type="line"/>
    </contour>
    <contour>
      <point x="168.5" y="699.5" type="line"/>
      <point x="254" y="700" type="line"/>
      <point x="133" y="0" type="line"/>
      <point x="51" y="0" type="line"/>
    </contour>
    <contour>
      <point x="304" y="-130" type="curve"/>
      <point x="328.5" y="-181.5" type="line"/>
      <point x="306.5" y="-201"/>
      <point x="277" y="-219"/>
      <point x="238" y="-219.5" type="curve" smooth="yes"/>
      <point x="166" y="-220.5"/>
      <point x="124" y="-180"/>
      <point x="133" y="-119.5" type="curve" smooth="yes"/>
      <point x="144" y="-53.5"/>
      <point x="218" y="-8.5"/>
      <point x="284.5" y="24.5" type="curve"/>
      <point x="323" y="0" type="line"/>
      <point x="276.5" y="-22.5"/>
      <point x="222" y="-56"/>
      <point x="215" y="-100" type="curve" smooth="yes"/>
      <point x="212" y="-129"/>
      <point x="224" y="-147.5"/>
      <point x="251.5" y="-149.5" type="curve" smooth="yes"/>
      <point x="273.5" y="-151"/>
      <point x="289.5" y="-140.5"/>
    </contour>
  </outline>
</glyph>
<glyph name="Gdotaccent" format="2">
  <advance width="752"/>
  <unicode hex="0120"/>
  <outline>
    <contour>
      <point x="411.5" y="275" type="line"/>
      <point x="426" y="355" type="line"/>
      <point x="741.5" y="354.5" type="line"/>
      <point x="708" y="166"/>
      <point x="569.5" y="-10"/>
      <point x="357.5" y="-10" type="curve" smooth="yes"/>
      <point x="155.5" y="-10"/>
      <point x="42.5" y="160"/>
      <point x="70.5" y="350" type="curve" smooth="yes"/>
      <point x="101.5" y="549.5"/>
      <point x="269" y="709.5"/>
      <point x="474.5" y="710" type="curve" smooth="yes"/>
      <point x="593" y="710.5"/>
      <point x="685" y="658.5"/>
      <point x="735" y="560" type="curve"/>
      <point x="668.5" y="506.5" type="line"/>
      <point x="632.5" y="583"/>
      <point x="561.5" y="625"/>
      <point x="466" y="624.5" type="curve" smooth="yes"/>
      <point x="313.5" y="624"/>
      <point x="185" y="502.5"/>
      <point x="159.5" y="350" type="curve" smooth="yes"/>
      <point x="137.5" y="206.5"/>
      <point x="215.5" y="76"/>
      <point x="366" y="75.5" type="curve" smooth="yes"/>
      <point x="502" y="75"/>
      <point x="593" y="169.5"/>
      <point x="639.5" y="275" type="curve"/>
    </contour>
    <contour>
      <point x="443" y="826" type="curve" smooth="yes"/>
      <point x="446" y="853"/>
      <point x="477.5" y="881"/>
      <point x="505" y="879.5" type="curve" smooth="yes"/>
      <point x="533.5" y="878"/>
      <point x="554" y="852"/>
      <point x="551" y="824" type="curve" smooth="yes"/>
      <point x="548" y="797"/>
      <point x="516.5" y="769"/>
      <point x="489" y="770.5" type="curve" smooth="yes"/>
      <point x="460.5" y="772"/>
      <point x="440" y="798"/>
    </contour>
  </outline>
</glyph>
<glyph name="dotlessi" format="2">
  <advance width="252"/>
  <unicode hex="0131"/>
  <outline>
    <contour>
      <point x="137" y="459.5" type="line"/>
      <point x="218" y="460" type="line"/>
      <point x="137.5" y="0" type="line"/>
      <point x="60.5" y="0" type="line"/>
    </contour>
  </outline>
</glyph>
<glyph name="IJ" format="2">
  <advance width="475"/>
  <unicode hex="0132"/>
  <outline>
    <contour>
      <point x="130.5" y="-104.5" type="line"/>
      <point x="145.5" y="-126.5"/>
      <point x="168" y="-141"/>
      <point x="200.5" y="-140" type="curve" smooth="yes"/>
      <point x="239.5" y="-138"/>
      <point x="275" y="-103"/>
      <point x="283.5" y="-50" type="curve"/>
      <point x="412.5" y="700" type="line"/>
      <point x="491.5" y="700" type="line"/>
      <point x="362" y="-60.5" type="line" smooth="yes"/>
      <point x="346" y="-157"/>
      <point x="282.5" y="-220.5"/>
      <point x="187.5" y="-219.5" type="curve" smooth="yes"/>
      <point x="139.5" y="-219"/>
      <point x="99.5" y="-194.5"/>
      <point x="78" y="-169" type="curve"/>
    </contour>
    <contour>
      <point x="168.5" y="699.5" type="line"/>
      <point x="254" y="700" type="line"/>
      <point x="133" y="0" type="line"/>
      <point x="51" y="0" type="line"/>
    </contour>
  </outline>
</glyph>
<glyph name="ij" format="2">
  <advance width="494"/>
  <unicode hex="0133"/>
  <outline>
    <contour>
      <point x="398.5" y="651" type="curve" smooth="yes"/>
      <point x="401.5" y="678"/>
      <point x="433.5" y="706"/>
      <point x="461" y="704.5" type="curve" smooth="yes"/>
      <point x="489.5" y="703"/>
      <point x="509.5" y="677"/>
      <point x="506.5" y="649" type="curve" smooth="yes"/>
      <point x="503.5" y="622"/>
      <point x="472" y="594"/>
      <point x="444.5" y="595.5" type="curve" smooth="yes"/>
      <point x="416" y="597"/>
      <point x="395.5" y="623"/>
    </contour>
    <contour>
      <point x="187" y="-114.5" type="line"/>
      <point x="198.5" y="-126"/>
      <point x="216" y="-140"/>
      <point x="230" y="-140.5" type="curve" smooth="yes"/>
      <point x="266" y="-142.5"/>
      <point x="287.5" y="-98"/>
      <point x="293" y="-50" type="curve" smooth="yes"/>
      <point x="381" y="460" type="line"/>
      <point x="460.5" y="460" type="line"/>
      <point x="371.5" y="-60.5" type="line" smooth="yes"/>
      <point x="357.5" y="-153"/>
      <point x="304" y="-221.5"/>
      <point x="216" y="-219.5" type="curve" smooth="yes"/>
      <point x="177.5" y="-219"/>
      <point x="153" y="-200.5"/>
      <point x="134.5" y="-178.5" type="curve"/>
    </contour>
    <contour>
      <point x="156" y="651" type="curve" smooth="yes"/>
      <point x="159" y="678"/>
      <point x="190.5" y="706"/>
      <point x="218" y="704.5" type="curve" smooth="yes"/>
      <point x="246.5" y="703"/>
      <point x="267" y="677"/>
      <point x="264" y="649" type="curve" smooth="yes"/>
      <point x="261" y="622"/>
      <point x="229.5" y="594"/>
      <point x="202" y="595.5" type="curve" smooth="yes"/>
      <point x="173.5" y="597"/>
      <point x="153" y="623"/>
    </contour>
    <contour>
      <point x="137" y="459.5" type="line"/>
      <point x="218" y="460" type="line"/>
      <point x="137.5" y="0" type="line"/>
      <point x="60.5" y="0" type="line"/>
    </contour>
  </outline>
</glyph>
<glyph name="lacute" format="2">
  <advance width="223"/>
  <unicode hex="013A"/>
  <outline>
    <contour>
      <point x="177.5" y="779.5" type="line"/>
      <point x="258" y="780" type="line"/>
      <point x="123" y="0" type="line"/>
      <point x="46" y="0" type="line"/>
    </contour>
    <contour>
      <point x="380.5" y="987.5" type="line"/>
      <point x="181.5" y="841" type="line"/>
      <point x="140" y="871.5" type="line"/>
      <point x="311.5" y="1029.5" type="line"/>
    </contour>
  </outline>
</glyph>
<glyph name="Lcaron" format="2">
  <advance width="436"/>
  <unicode hex="013D"/>
  <outline>
    <contour>
      <point x="169.5" y="700" type="line"/>
      <point x="254" y="700" type="line"/>
      <point x="147.5" y="80" type="line"/>
      <point x="414.5" y="80" type="line"/>
      <point x="400.5" y="0" type="line"/>
      <point x="49.5" y="0" type="line"/>
    </contour>
    <contour>
      <point x="410.5" y="709" type="line"/>
      <point x="486.5" y="678" type="line"/>
      <point x="337" y="431" type="line"/>
      <point x="282" y="452" type="line"/>
    </contour>
  </outline>
</glyph>
<glyph name="Nacute" format="2">
  <advance width="752"/>
  <unicode hex="0143"/>
  <outline>
    <contour>
      <point x="684" y="700" type="line"/>
      <point x="768" y="700" type="line"/>
      <point x="642" y="-34" type="line"/>
      <point x="223.5" y="521.5" type="line"/>
      <point x="133.5" y="0" type="line"/>
      <point x="49" y="0" type="line"/>
      <point x="175" y="734" type="line"/>
      <point x="594" y="178.5" type="line"/>
    </contour>
    <contour>
      <point x="671.5" y="902.5" type="line"/>
      <point x="472.5" y="756" type="line"/>
      <point x="431" y="786.5" type="line"/>
      <point x="603" y="944.5" type="line"/>
    </contour>
  </outline>
</glyph>
<glyph name="napostrophe" format="2">
  <advance width="616"/>
  <unicode hex="0149"/>
  <outline>
    <contour>
      <point x="310" y="460" type="line"/>
      <point x="230.5" y="0" type="line"/>
      <point x="151" y="0" type="line"/>
      <point x="230.5" y="460" type="line"/>
    </contour>
    <contour>
      <point x="486.5" y="280" type="line" smooth="yes"/>
      <point x="494" y="342.5"/>
      <point x="480" y="393"/>
      <point x="414" y="394.5" type="curve" smooth="yes"/>
      <point x="343.5" y="396"/>
      <point x="294.5" y="341.5"/>
      <point x="278.5" y="281" type="curve"/>
      <point x="242" y="281" type="line"/>
      <point x="262" y="380"/>
      <point x="339" y="469.5"/>
      <point x="440.5" y="469.5" type="curve" smooth="yes"/>
      <point x="540.5" y="469.5"/>
      <point x="578.5" y="390.5"/>
      <point x="566.5" y="290" type="curve"/>
      <point x="516" y="0" type="line"/>
      <point x="439" y="0" type="line"/>
    </contour>
    <contour>
      <point x="217" y="699.5" type="line"/>
      <point x="313.5" y="699.5" type="line"/>
      <point x="175.5" y="471" type="line"/>
      <point x="120.5" y="471" type="line"/>
    </contour>
  </outline>
</glyph>
<glyph name="Obreve" format="2">
  <advance width="766"/>
  <unicode hex="014E"/>
  <outline>
    <contour>
      <point x="159.5" y="350" type="curve" smooth="yes"/>
      <point x="137.5" y="209"/>
      <point x="213" y="76.5"/>
      <point x="366" y="75.5" type="curve" smooth="yes"/>
      <point x="521" y="74.5"/>
      <point x="647.5" y="201"/>
      <point x="672.5" y="350" type="curve" smooth="yes"/>
      <point x="694.5" y="491"/>
      <point x="619" y="623.5"/>
      <point x="466" y="624.5" type="curve" smooth="yes"/>
      <point x="311" y="625.5"/>
      <point x="184.5" y="499"/>
    </contour>
    <contour>
      <point x="70.5" y="350" type="curve" smooth="yes"/>
      <point x="101" y="546"/>
      <point x="270" y="710.5"/>
      <point x="474.5" y="710" type="curve" smooth="yes"/>
      <point x="676" y="709.5"/>
      <point x="789" y="537.5"/>
      <point x="761.5" y="350" type="curve" smooth="yes"/>
      <point x="731" y="154"/>
      <point x="562" y="-10.5"/>
      <point x="357.5" y="-10" type="curve" smooth="yes"/>
      <point x="156" y="-9.5"/>
      <point x="43" y="162.5"/>
    </contour>
    <contour>
      <point x="357.5" y="910" type="curve"/>
      <point x="426.5" y="909.5" type="line"/>
      <point x="425" y="876.5"/>
      <point x="437.5" y="836"/>
      <point x="496" y="835.5" type="curve" smooth="yes"/>
      <point x="556.5" y="835"/>
      <point x="581.5" y="877.5"/>
      <point x="595" y="909.5" type="curve"/>
      <point x="665.5" y="909" type="line"/>
      <point x="646.5" y="837"/>
      <point x="587" y="770.5"/>
      <point x="490" y="770.5" type="curve" smooth="yes"/>
      <point x="394" y="770.5"/>
      <point x="352" y="836.5"/>
    </contour>
  </outline>
</glyph>
<glyph name="OE" format="2">
  <advance width="955"/>
  <unicode hex="0152"/>
  <outline>
    <contour>
      <point x="576.5" y="340.5" type="line"/>
      <point x="590" y="420" type="line"/>
      <point x="914.5" y="420" type="line"/>
      <point x="901" y="340" type="line"/>
    </contour>
    <contour>
      <point x="585.5" y="669.5" type="line"/>
      <point x="671" y="670" type="line"/>
      <point x="560" y="30" type="line"/>
      <point x="478" y="30.5" type="line"/>
    </contour>
    <contour>
      <point x="875" y="79.5" type="line"/>
      <point x="862" y="0" type="line"/>
      <point x="354.5" y="0" type="line"/>
      <point x="155" y="3.5"/>
      <point x="42" y="158"/>
      <point x="70.5" y="350" type="curve" smooth="yes"/>
      <point x="101.5" y="550"/>
      <point x="263.5" y="697"/>
      <point x="467.5" y="700" type="curve"/>
      <point x="981.5" y="700" type="line"/>
      <point x="967" y="620" type="line"/>
      <point x="633" y="620" type="line"/>
      <point x="616.5" y="620" type="line"/>
      <point x="460.5" y="620" type="line"/>
      <point x="302" y="617"/>
      <point x="180.5" y="504.5"/>
      <point x="154.5" y="350" type="curve" smooth="yes"/>
      <point x="131" y="203.5"/>
      <point x="207.5" y="83.5"/>
      <point x="362" y="80" type="curve"/>
      <point x="515.5" y="80" type="line"/>
      <point x="538.5" y="80" type="line"/>
    </contour>
  </outline>
</glyph>
<glyph name="scedilla" format="2">
  <advance width="391"/>
  <unicode hex="015F"/>
  <outline>
    <contour>
      <point x="84.5" y="162.5" type="line"/>
      <point x="107" y="113"/>
      <point x="142.5" y="67.5"/>
      <point x="190.5" y="66.5" type="curve" smooth="yes"/>
      <point x="229.5" y="65.5"/>
      <point x="268.5" y="85.5"/>
      <point x="275" y="122.5" type="curve" smooth="yes"/>
      <point x="283.5" y="170"/>
      <point x="235.5" y="192.5"/>
      <point x="191.5" y="212" type="curve" smooth="yes"/>
      <point x="132" y="239.5"/>
      <point x="72.5" y="268.5"/>
      <point x="83.5" y="347.5" type="curve" smooth="yes"/>
      <point x="95" y="427.5"/>
      <point x="173" y="470.5"/>
      <point x="247.5" y="470.5" type="curve" smooth="yes"/>
      <point x="316.5" y="470.5"/>
      <point x="370" y="434"/>
      <point x="396.5" y="380" type="curve"/>
      <point x="329" y="340.5" type="line"/>
      <point x="309.5" y="370.5"/>
      <point x="278" y="397"/>
      <point x="241" y="397.5" type="curve" smooth="yes"/>
      <point x="205.5" y="398"/>
      <point x="166.5" y="384"/>
      <point x="161" y="349.5" type="curve" smooth="yes"/>
      <point x="153" y="304.5"/>
      <point x="215.5" y="289"/>
      <point x="256" y="271" type="curve" smooth="yes"/>
      <point x="316.5" y="243.5"/>
      <point x="367.5" y="201.5"/>
      <point x="358" y="130.5" type="curve" smooth="yes"/>
      <point x="346" y="39.5"/>
      <point x="269.5" y="-9"/>
      <point x="183" y="-8.5" type="curve" smooth="yes"/>
      <point x="99.5" y="-8"/>
      <point x="43" y="51"/>
      <point x="17.5" y="125" type="curve"/>
    </contour>
    <contour>
      <point x="199" y="59" type="line"/>
      <point x="261.5" y="59" type="line"/>
      <point x="179" y="-52" type="line"/>
      <point x="181" y="-52"/>
      <point x="183" y="-52"/>
      <point x="185" y="-52" type="curve" smooth="yes"/>
      <point x="221" y="-55.5"/>
      <point x="251.5" y="-83"/>
      <point x="247" y="-127" type="curve" smooth="yes"/>
      <point x="240.5" y="-184"/>
      <point x="181" y="-220"/>
      <point x="127.5" y="-219.5" type="curve" smooth="yes"/>
      <point x="92.5" y="-219"/>
      <point x="71" y="-205.5"/>
      <point x="46" y="-180.5" type="curve"/>
      <point x="82.5" y="-142.5" type="line"/>
      <point x="98.5" y="-156"/>
      <point x="110.5" y="-166"/>
      <point x="133" y="-166" type="curve" smooth="yes"/>
      <point x="160.5" y="-166"/>
      <point x="187" y="-148.5"/>
      <point x="190" y="-125.5" type="curve" smooth="yes"/>
      <point x="193" y="-103"/>
      <point x="175" y="-90.5"/>
      <point x="149" y="-90" type="curve" smooth="yes"/>
      <point x="134" y="-89"/>
      <point x="110" y="-96.5"/>
      <point x="90" y="-107" type="curve"/>
    </contour>
  </outline>
</glyph>
<glyph name="Tcaron" format="2">
  <advance width="451"/>
  <unicode hex="0164"/>
  <outline>
    <contour>
      <point x="87" y="620" type="line"/>
      <point x="101.5" y="700" type="line"/>
      <point x="535" y="700" type="line"/>
      <point x="521" y="620" type="line"/>
      <point x="346.5" y="620" type="line"/>
      <point x="240" y="0" type="line"/>
      <point x="156" y="0" type="line"/>
      <point x="262.5" y="620" type="line"/>
    </contour>
    <contour>
      <point x="341.75" y="855.5" type="line"/>
      <point x="465.75" y="949.5" type="line"/>
      <point x="509.75" y="908.5" type="line"/>
      <point x="331.75" y="770" type="line"/>
      <point x="197.75" y="911" type="line"/>
      <point x="251.25" y="949.5" type="line"/>
    </contour>
  </outline>
</glyph>
<glyph name="Ubreve" format="2">
  <advance width="607"/>
  <unicode hex="016C"/>
  <outline>
    <contour>
      <point x="164.5" y="700" type="line"/>
      <point x="249.5" y="700" type="line"/>
      <point x="167.5" y="230" type="line" smooth="yes"/>
      <point x="156" y="145"/>
      <point x="187.5" y="71.5"/>
      <point x="284.5" y="70.5" type="curve" smooth="yes"/>
      <point x="382.5" y="69"/>
      <point x="446" y="140.5"/>
      <point x="462.5" y="230" type="curve"/>
      <point x="543.5" y="700" type="line"/>
      <point x="629" y="700" type="line"/>
      <point x="549" y="230" type="line" smooth="yes"/>
      <point x="526" y="97.5"/>
      <point x="423" y="-9.5"/>
      <point x="279.5" y="-9.5" type="curve" smooth="yes"/>
      <point x="138.5" y="-9.5"/>
      <point x="66.5" y="100.5"/>
      <point x="84" y="230" type="curve"/>
    </contour>
    <contour>
      <point x="277" y="910" type="curve"/>
      <point x="346.5" y="909.5" type="line"/>
      <point x="344.5" y="877"/>
      <point x="356.5" y="836"/>
      <point x="415" y="835.5" type="curve" smooth="yes"/>
      <point x="475.5" y="835"/>
      <point x="500.5" y="877.5"/>
      <point x="514" y="909.5" type="curve"/>
      <point x="586" y="908.5" type="line"/>
      <point x="568" y="836"/>
      <point x="509" y="770.5"/>
      <point x="412" y="770.5" type="curve" smooth="yes"/>
      <point x="316" y="770.5"/>
      <point x="272" y="836"/>
    </contour>
  </outline>
</glyph>
<glyph name="Uring" format="2">
  <advance width="607"/>
  <unicode hex="016E"/>
  <outline>
    <contour>
      <point x="165" y="700" type="line"/>
      <point x="249" y="700" type="line"/>
      <point x="167.5" y="230" type="line" smooth="yes"/>
      <point x="156" y="144.5"/>
      <point x="189" y="71.5"/>
      <point x="286" y="70.5" type="curve" smooth="yes"/>
      <point x="384" y="69.5"/>
      <point x="447" y="140.5"/>
      <point x="463.5" y="230" type="curve"/>
      <point x="544.5" y="700" type="line"/>
      <point x="628.5" y="700" type="line"/>
      <point x="548" y="230" type="line" smooth="yes"/>
      <point x="525" y="97.5"/>
      <point x="421.5" y="-9.5"/>
      <point x="278" y="-9.5" type="curve" smooth="yes"/>
      <point x="137" y="-9.5"/>
      <point x="67" y="101"/>
      <point x="84.5" y="230" type="curve"/>
    </contour>
    <contour>
      <point x="325.5" y="871" type="curve" smooth="yes"/>
      <point x="333" y="926"/>
      <point x="387" y="970"/>
      <point x="440" y="969.5" type="curve" smooth="yes"/>
      <point x="493" y="969"/>
      <point x="532.5" y="923.5"/>
      <point x="525" y="869" type="curve" smooth="yes"/>
      <point x="517.5" y="814"/>
      <point x="463" y="770"/>
      <point x="410" y="770.5" type="curve" smooth="yes"/>
      <point x="357" y="771"/>
      <point x="318" y="816.5"/>
    </contour>
    <contour>
      <point x="375.5" y="869.5" type="curve" smooth="yes"/>
      <point x="372.5" y="843"/>
      <point x="390.5" y="819"/>
      <point x="414.5" y="817.5" type="curve" smooth="yes"/>
      <point x="439" y="815.5"/>
      <point x="472" y="843"/>
      <point x="475" y="870.5" type="curve" smooth="yes"/>
      <point x="478" y="897"/>
      <point x="460" y="921"/>
      <point x="436" y="922.5" type="curve" smooth="yes"/>
      <point x="411.5" y="924.5"/>
      <point x="378.5" y="897"/>
    </contour>
  </outline>
</glyph>
<glyph name="wcircumflex" format="2">
  <advance width="659"/>
  <unicode hex="0175"/>
  <outline>
    <contour>
      <point x="57" y="460" type="line"/>
      <point x="143.5" y="460" type="line"/>
      <point x="203" y="164.5" type="line"/>
      <point x="383" y="498" type="line"/>
      <point x="454" y="162.5" type="line"/>
      <point x="617" y="459.5" type="line"/>
      <point x="710" y="459.5" type="line"/>
      <point x="427.5" y="-38" type="line"/>
      <point x="351.5" y="296.5" type="line"/>
      <point x="165.5" y="-38" type="line"/>
    </contour>
    <contour>
      <point x="413" y="649" type="line"/>
      <point x="289" y="555.5" type="line"/>
      <point x="243.5" y="597" type="line"/>
      <point x="420.5" y="735" type="line"/>
      <point x="556" y="593.5" type="line"/>
      <point x="503" y="555" type="line"/>
    </contour>
  </outline>
</glyph>
<glyph name="ycircumflex" format="2">
  <advance width="426"/>
  <unicode hex="0177"/>
  <outline>
    <contour>
      <point x="482" y="459.5" type="line"/>
      <point x="73.5" y="-219.5" type="line"/>
      <point x="-20" y="-219.5" type="line"/>
      <point x="155.5" y="69" type="line"/>
      <point x="52" y="460" type="line"/>
      <point x="143.5" y="460" type="line"/>
      <point x="224.5" y="100" type="line"/>
      <point x="191" y="105" type="line"/>
      <point x="388.5" y="459.5" type="line"/>
    </contour>
    <contour>
      <point x="297" y="624" type="line"/>
      <point x="173" y="530.5" type="line"/>
      <point x="127.5" y="572" type="line"/>
      <point x="304.5" y="710" type="line"/>
      <point x="440" y="568.5" type="line"/>
      <point x="387" y="530" type="line"/>
    </contour>
  </outline>
</glyph>
<glyph name="Zcaron" format="2">
  <advance width="528"/>
  <unicode hex="017D"/>
  <outline>
    <contour>
      <point x="111.5" y="620" type="line"/>
      <point x="126" y="700" type="line"/>
      <point x="604" y="699.5" type="line"/>
      <point x="141" y="80.5" type="line"/>
      <point x="478" y="80" type="line"/>
      <point x="463.5" y="0" type="line"/>
      <point x="-15" y="0" type="line"/>
      <point x="448.5" y="619.5" type="line"/>
    </contour>
    <contour>
      <point x="388" y="855.5" type="line"/>
      <point x="511.5" y="949.5" type="line"/>
      <point x="556" y="908.5" type="line"/>
      <point x="378" y="770" type="line"/>
      <point x="244" y="911" type="line"/>
      <point x="297.5" y="949.5" type="line"/>
    </contour>
  </outline>
</glyph>
<glyph name="zcaron" format="2">
  <advance width="446"/>
  <unicode hex="017E"/>
  <outline>
    <contour>
      <point x="313" y="615.5" type="line"/>
      <point x="437" y="709.5" type="line"/>
      <point x="481" y="668.5" type="line"/>
      <point x="303" y="530" type="line"/>
      <point x="169" y="671" type="line"/>
      <point x="222.5" y="709.5" type="line"/>
    </contour>
    <contour>
      <point x="327.5" y="384.5" type="line"/>
      <point x="81" y="385" type="line"/>
      <point x="94.5" y="460" type="line"/>
      <point x="486" y="459.5" type="line"/>
      <point x="143" y="75.5" type="line"/>
      <point x="399.5" y="75" type="line"/>
      <point x="386" y="0" type="line"/>
      <point x="-15" y="0" type="line"/>
    </contour>
  </outline>
</glyph>
<glyph name="uni021A" format="2">
  <advance width="451"/>
  <unicode hex="021A"/>
  <outline>
    <contour>
      <point x="87" y="620" type="line"/>
      <point x="101.5" y="700" type="line"/>
      <point x="535" y="700" type="line"/>
      <point x="521" y="620" type="line"/>
      <point x="346.5" y="620" type="line"/>
      <point x="240" y="0" type="line"/>
      <point x="156" y="0" type="line"/>
      <point x="262.5" y="620" type="line"/>
    </contour>
    <contour>
      <point x="188.706" y="-60" type="line"/>
      <point x="264.706" y="-91" type="line"/>
      <point x="115.206" y="-338" type="line"/>
      <point x="59.7061" y="-317" type="line"/>
    </contour>
  </outline>
</glyph>
<glyph name="uni021B" format="2">
  <advance width="232"/>
  <unicode hex="021B"/>
  <outline>
    <contour>
      <point x="57.5" y="460" type="line"/>
      <point x="282" y="460" type="line"/>
      <point x="268.5" y="385" type="line"/>
      <point x="43.5" y="385" type="line"/>
    </contour>
    <contour>
      <point x="155" y="619.5" type="line"/>
      <point x="235.5" y="620" type="line"/>
      <point x="128" y="0" type="line"/>
      <point x="51" y="0" type="line"/>
    </contour>
    <contour>
      <point x="80.2061" y="-60" type="line"/>
      <point x="156.206" y="-91" type="line"/>
      <point x="6.70605" y="-338" type="line"/>
      <point x="-48.7939" y="-317" type="line"/>
    </contour>
  </outline>
</glyph>
<glyph name="ogonek" format="2">
  <advance width="252"/>
  <unicode hex="02DB"/>
  <outline>
    <contour>
      <point x="150.5" y="-130" type="curve"/>
      <point x="176" y="-181" type="line"/>
      <point x="154.5" y="-200.5"/>
      <point x="125" y="-219"/>
      <point x="86" y="-219.5" type="curve" smooth="yes"/>
      <point x="14" y="-220.5"/>
      <point x="-29.5" y="-180"/>
      <point x="-21" y="-119.5" type="curve" smooth="yes"/>
      <point x="-11" y="-53.5"/>
      <point x="62.5" y="-8.5"/>
      <point x="128.5" y="24.5" type="curve"/>
      <point x="167" y="0" type="line"/>
      <point x="121" y="-22.5"/>
      <point x="66.5" y="-56"/>
      <point x="60.5" y="-100" type="curve" smooth="yes"/>
      <point x="58" y="-129"/>
      <point x="70.5" y="-147.5"/>
      <point x="98" y="-149.5" type="curve" smooth="yes"/>
      <point x="120" y="-151"/>
      <point x="136" y="-140.5"/>
    </contour>
  </outline>
</glyph>
<glyph name="uni0410" format="2">
  <advance width="640"/>
  <unicode hex="0410"/>
  <outline>
    <contour>
      <point x="151.5" y="211" type="line"/>
      <point x="192.5" y="289.5" type="line"/>
      <point x="495.5" y="290" type="line"/>
      <point x="512.5" y="209.5" type="line"/>
    </contour>
    <contour>
      <point x="389" y="542" type="line"/>
      <point x="226.5" y="264" type="line"/>
      <point x="216" y="246" type="line"/>
      <point x="72.5" y="0" type="line"/>
      <point x="-26" y="0" type="line"/>
      <point x="418.5" y="738" type="line"/>
      <point x="608" y="0" type="line"/>
      <point x="516.5" y="0" type="line"/>
      <point x="458.5" y="240" type="line"/>
      <point x="454.5" y="260" type="line"/>
    </contour>
  </outline>
</glyph>
<glyph name="uni0416" format="2">
  <advance width="868"/>
  <unicode hex="0416"/>
  <outline>
    <contour>
      <point x="211.5" y="700" type="line"/>
      <point x="449.5" y="366.5" type="line"/>
      <point x="83" y="0" type="line"/>
      <point x="-26.5" y="0" type="line"/>
      <point x="350.5" y="375.5" type="line"/>
      <point x="114" y="700" type="line"/>
    </contour>
    <contour>
      <point x="487.5" y="699.5" type="line"/>
      <point x="575" y="700" type="line"/>
      <point x="453.5" y="0" type="line"/>
      <point x="371.5" y="0" type="line"/>
    </contour>
    <contour>
      <point x="836" y="699.5" type="line"/>
      <point x="946" y="699.5" type="line"/>
      <point x="591" y="368.5" type="line"/>
      <point x="834.5" y="0" type="line"/>
      <point x="736.5" y="0" type="line"/>
      <point x="501" y="374" type="line"/>
    </contour>
  </outline>
</glyph>
<glyph name="uni0419" format="2">
  <advance width="752"/>
  <unicode hex="0419"/>
  <outline>
    <contour>
      <point x="746" y="602" type="line"/>
      <point x="39.5" y="-41" type="line"/>
      <point x="71.5" y="98" type="line"/>
      <point x="777.5" y="741.5" type="line"/>
    </contour>
    <contour>
      <point x="254.5" y="700" type="line"/>
      <point x="146" y="71.5" type="line"/>
      <point x="39.5" y="-41" type="line"/>
      <point x="169" y="700" type="line"/>
    </contour>
    <contour>
      <point x="777.5" y="741.5" type="line"/>
      <point x="648" y="0" type="line"/>
      <point x="563" y="0" type="line"/>
      <point x="671" y="628.5" type="line"/>
    </contour>
    <contour>
      <point x="356.904" y="906" type="curve"/>
      <point x="425.904" y="906" type="line"/>
      <point x="424.904" y="873"/>
      <point x="438.404" y="832"/>
      <point x="496.904" y="831.5" type="curve" smooth="yes"/>
      <point x="557.404" y="831"/>
      <point x="581.904" y="873"/>
      <point x="594.404" y="905.5" type="curve"/>
      <point x="664.904" y="905" type="line"/>
      <point x="647.404" y="832.5"/>
      <point x="588.904" y="766.5"/>
      <point x="491.904" y="766.5" type="curve" smooth="yes"/>
      <point x="396.404" y="766.5"/>
      <point x="352.404" y="832"/>
    </contour>
  </outline>
</glyph>
<glyph name="uni0423" format="2">
  <advance width="548"/>
  <unicode hex="0423"/>
  <outline>
    <contour>
      <point x="644.5" y="700" type="line"/>
      <point x="204.5" y="0" type="line"/>
      <point x="106" y="0" type="line"/>
      <point x="233" y="211" type="line"/>
      <point x="93" y="700" type="line"/>
      <point x="191" y="700" type="line"/>
      <point x="312" y="230" type="line"/>
      <point x="262" y="235" type="line"/>
      <point x="546" y="700" type="line"/>
    </contour>
  </outline>
</glyph>
<glyph name="uni0428" format="2">
  <advance width="955"/>
  <unicode hex="0428"/>
  <outline>
    <contour>
      <point x="780.5" y="80" type="line"/>
      <point x="887" y="700" type="line"/>
      <point x="972.5" y="700" type="line"/>
      <point x="852.5" y="0" type="line"/>
      <point x="49" y="0" type="line"/>
      <point x="169" y="700" type="line"/>
      <point x="254.5" y="700" type="line"/>
      <point x="148" y="80" type="line"/>
      <point x="421.5" y="80" type="line"/>
      <point x="528" y="700" type="line"/>
      <point x="613.5" y="700" type="line"/>
      <point x="507" y="80" type="line"/>
    </contour>
  </outline>
</glyph>
<glyph name="uni042E" format="2">
  <advance width="999"/>
  <unicode hex="042E"/>
  <outline>
    <contour>
      <point x="154.5" y="340.5" type="line"/>
      <point x="167.5" y="420" type="line"/>
      <point x="383.5" y="420" type="line"/>
      <point x="370" y="340.5" type="line"/>
    </contour>
    <contour>
      <point x="167.5" y="699.5" type="line"/>
      <point x="255" y="700" type="line"/>
      <point x="133" y="0" type="line"/>
      <point x="51" y="0" type="line"/>
    </contour>
    <contour>
      <point x="393" y="350" type="curve" smooth="yes"/>
      <point x="370.5" y="209.5"/>
      <point x="444.5" y="76.5"/>
      <point x="597.5" y="75.5" type="curve" smooth="yes"/>
      <point x="752.5" y="74.5"/>
      <point x="879.5" y="201"/>
      <point x="905" y="350" type="curve" smooth="yes"/>
      <point x="927.5" y="490.5"/>
      <point x="853.5" y="623.5"/>
      <point x="700.5" y="624.5" type="curve" smooth="yes"/>
      <point x="545.5" y="625.5"/>
      <point x="418.5" y="499"/>
    </contour>
    <contour>
      <point x="303" y="350" type="curve" smooth="yes"/>
      <point x="333" y="546"/>
      <point x="501" y="710.5"/>
      <point x="705.5" y="710" type="curve" smooth="yes"/>
      <point x="906.5" y="709.5"/>
      <point x="1021.5" y="538"/>
      <point x="994.5" y="350" type="curve" smooth="yes"/>
      <point x="964.5" y="154"/>
      <point x="796.5" y="-10.5"/>
      <point x="592" y="-10" type="curve" smooth="yes"/>
      <point x="391" y="-9.5"/>
      <point x="276" y="162"/>
    </contour>
  </outline>
</glyph>
<glyph name="uni0436" format="2">
  <advance width="655"/>
  <unicode hex="0436"/>
  <outline>
    <contour>
      <point x="586.5" y="459.5" type="line"/>
      <point x="691.5" y="459.5" type="line"/>
      <point x="448.5" y="257" type="line"/>
      <point x="626" y="0" type="line"/>
      <point x="533" y="0" type="line"/>
      <point x="363.5" y="273.5" type="line"/>
    </contour>
    <contour>
      <point x="416" y="459.5" type="line"/>
      <point x="338" y="0.5" type="line"/>
      <point x="263.5" y="0" type="line"/>
      <point x="341.5" y="459.5" type="line"/>
    </contour>
    <contour>
      <point x="165" y="460" type="line"/>
      <point x="329.5" y="266.5" type="line"/>
      <point x="73" y="0" type="line"/>
      <point x="-31.5" y="0" type="line"/>
      <point x="241" y="263.5" type="line"/>
      <point x="73" y="460" type="line"/>
    </contour>
  </outline>
</glyph>
<glyph name="uni0437" format="2">
  <advance width="461"/>
  <unicode hex="0437"/>
  <outline>
    <contour>
      <point x="247" y="230.5" type="curve"/>
      <point x="254" y="279.5" type="line"/>
      <point x="303.5" y="282.5"/>
      <point x="344.5" y="301"/>
      <point x="351" y="341.5" type="curve" smooth="yes"/>
      <point x="355.5" y="375.5"/>
      <point x="326" y="396.5"/>
      <point x="291" y="397" type="curve" smooth="yes"/>
      <point x="239.5" y="398"/>
      <point x="209.5" y="359.5"/>
      <point x="197" y="326.5" type="curve"/>
      <point x="115.5" y="327.5" type="line"/>
      <point x="133" y="404"/>
      <point x="202.5" y="469.5"/>
      <point x="289" y="469.5" type="curve" smooth="yes"/>
      <point x="376.5" y="469.5"/>
      <point x="442.5" y="407"/>
      <point x="430" y="333" type="curve" smooth="yes"/>
      <point x="417" y="257"/>
      <point x="337" y="233"/>
    </contour>
    <contour>
      <point x="216" y="-9.5" type="curve" smooth="yes"/>
      <point x="115.5" y="-9.5"/>
      <point x="57.5" y="56"/>
      <point x="54.5" y="145" type="curve"/>
      <point x="133" y="145" type="line"/>
      <point x="139" y="98"/>
      <point x="158" y="61.5"/>
      <point x="220" y="60.5" type="curve" smooth="yes"/>
      <point x="274" y="59.5"/>
      <point x="328.5" y="88.5"/>
      <point x="336.5" y="135.5" type="curve" smooth="yes"/>
      <point x="346.5" y="187"/>
      <point x="300" y="206.5"/>
      <point x="243.5" y="210" type="curve"/>
      <point x="251.5" y="260" type="line"/>
      <point x="339.5" y="257"/>
      <point x="428.5" y="220"/>
      <point x="415.5" y="134.5" type="curve" smooth="yes"/>
      <point x="403" y="46"/>
      <point x="306.5" y="-9.5"/>
    </contour>
  </outline>
</glyph>
<glyph name="uni0438" format="2">
  <advance width="528"/>
  <unicode hex="0438"/>
  <outline>
    <contour>
      <point x="484.5" y="377" type="line"/>
      <point x="39.5" y="-41" type="line"/>
      <point x="68.5" y="83" type="line"/>
      <point x="513.5" y="501.5" type="line"/>
    </contour>
    <contour>
      <point x="208.5" y="460" type="line"/>
      <point x="141" y="71.5" type="line"/>
      <point x="39.5" y="-41" type="line"/>
      <point x="128" y="460" type="line"/>
    </contour>
    <contour>
      <point x="513.5" y="501.5" type="line"/>
      <point x="425" y="0" type="line"/>
      <point x="344.5" y="0" type="line"/>
      <point x="412" y="388.5" type="line"/>
    </contour>
  </outline>
</glyph>
<glyph name="uni043A" format="2">
  <advance width="426"/>
  <unicode hex="043A"/>
  <outline>
    <contour>
      <point x="116.5" y="459.5" type="line"/>
      <point x="199.5" y="460" type="line"/>
      <point x="118.5" y="0" type="line"/>
      <point x="41.5" y="0" type="line"/>
    </contour>
    <contour>
      <point x="358" y="459.5" type="line"/>
      <point x="463.5" y="459.5" type="line"/>
      <point x="231.5" y="267" type="line"/>
      <point x="398" y="0" type="line"/>
      <point x="305" y="0" type="line"/>
      <point x="135.5" y="273.5" type="line"/>
    </contour>
  </outline>
</glyph>
<glyph name="uni043E" format="2">
  <advance width="529"/>
  <unicode hex="043E"/>
  <outline>
    <contour>
      <point x="44.5" y="230" type="curve" smooth="yes"/>
      <point x="64" y="362.5"/>
      <point x="178" y="469.5"/>
      <point x="313.5" y="469.5" type="curve" smooth="yes"/>
      <point x="447.5" y="469.5"/>
      <point x="527.5" y="358"/>
      <point x="509.5" y="230" type="curve" smooth="yes"/>
      <point x="490" y="97.5"/>
      <point x="376" y="-9.5"/>
      <point x="240.5" y="-9.5" type="curve" smooth="yes"/>
      <point x="106.5" y="-9.5"/>
      <point x="26.5" y="102"/>
    </contour>
    <contour>
      <point x="125.5" y="230" type="curve" smooth="yes"/>
      <point x="112" y="146.5"/>
      <point x="154" y="66.5"/>
      <point x="244.5" y="65.5" type="curve" smooth="yes"/>
      <point x="336" y="64.5"/>
      <point x="412.5" y="140.5"/>
      <point x="428.5" y="230" type="curve" smooth="yes"/>
      <point x="442" y="313.5"/>
      <point x="400" y="393.5"/>
      <point x="309.5" y="394.5" type="curve" smooth="yes"/>
      <point x="218" y="395.5"/>
      <point x="141.5" y="319.5"/>
    </contour>
  </outline>
</glyph>
<glyph name="uni0449" format="2">
  <advance width="795"/>
  <unicode hex="0449"/>
  <outline>
    <contour>
      <point x="401.5" y="74.5" type="line"/>
      <point x="590.5" y="75" type="line"/>
      <point x="657" y="460" type="line"/>
      <point x="737.5" y="460" type="line"/>
      <point x="671" y="75" type="line"/>
      <point x="749" y="75" type="line"/>
      <point x="721" y="-89.5" type="line"/>
      <point x="651" y="-89.5" type="line"/>
      <point x="666.5" y="0" type="line"/>
      <point x="44" y="0" type="line"/>
      <point x="123.5" y="460" type="line"/>
      <point x="204" y="460" type="line"/>
      <point x="137" y="75" type="line"/>
      <point x="323.5" y="75" type="line"/>
      <point x="391" y="459.5" type="line"/>
      <point x="468.5" y="459.5" type="line"/>
    </contour>
  </outline>
</glyph>
<glyph name="uni044D" format="2">
  <advance width="463"/>
  <unicode hex="044D"/>
  <outline>
    <contour>
      <point x="149.5" y="266.5" type="line"/>
      <point x="447" y="266.5" type="line"/>
      <point x="365.5" y="193.5" type="line"/>
      <point x="138.5" y="193.5" type="line"/>
    </contour>
    <contour>
      <point x="367.5" y="230" type="curve" smooth="yes"/>
      <point x="381.5" y="314.5"/>
      <point x="338" y="392.5"/>
      <point x="248" y="394" type="curve" smooth="yes"/>
      <point x="176" y="395"/>
      <point x="112" y="356"/>
      <point x="75.5" y="312" type="curve"/>
      <point x="89.5" y="411.5" type="line"/>
      <point x="130.5" y="447"/>
      <point x="190.5" y="470"/>
      <point x="252.5" y="470" type="curve" smooth="yes"/>
      <point x="386.5" y="470"/>
      <point x="466" y="358"/>
      <point x="448" y="230" type="curve" smooth="yes"/>
      <point x="428.5" y="97"/>
      <point x="315" y="-9"/>
      <point x="179.5" y="-9.5" type="curve" smooth="yes"/>
      <point x="120" y="-10"/>
      <point x="64.5" y="10"/>
      <point x="29.5" y="49.5" type="curve"/>
      <point x="45" y="149" type="line"/>
      <point x="64.5" y="99"/>
      <point x="117" y="65"/>
      <point x="183.5" y="65.5" type="curve" smooth="yes"/>
      <point x="275.5" y="66"/>
      <point x="351.5" y="140"/>
    </contour>
  </outline>
</glyph>
<glyph name="uni0450" format="2">
  <advance width="499"/>
  <unicode hex="0450"/>
  <outline>
    <contour>
      <point x="98.5" y="210" type="line"/>
      <point x="108.5" y="278" type="line"/>
      <point x="406" y="278" type="line"/>
      <point x="410" y="344.5"/>
      <point x="379" y="398.5"/>
      <point x="302" y="399.5" type="curve" smooth="yes"/>
      <point x="219.5" y="400.5"/>
      <point x="154" y="339"/>
      <point x="138" y="260" type="curve"/>
      <point x="131" y="230" type="line"/>
      <point x="119" y="140.5"/>
      <point x="154" y="66"/>
      <point x="245.5" y="65.5" type="curve" smooth="yes"/>
      <point x="311" y="65"/>
      <point x="359.5" y="103"/>
      <point x="398" y="148.5" type="curve"/>
      <point x="458.5" y="105.5" type="line"/>
      <point x="403" y="39"/>
      <point x="336.5" y="-10.5"/>
      <point x="229.5" y="-9.5" type="curve" smooth="yes"/>
      <point x="101.5" y="-8"/>
      <point x="36.5" y="105.5"/>
      <point x="51.5" y="230" type="curve" smooth="yes"/>
      <point x="54" y="247"/>
      <point x="57.5" y="263"/>
      <point x="62.5" y="279" type="curve" smooth="yes"/>
      <point x="95.5" y="386.5"/>
      <point x="189.5" y="470"/>
      <point x="307.5" y="469.5" type="curve" smooth="yes"/>
      <point x="440" y="469"/>
      <point x="499.5" y="362.5"/>
      <point x="485.5" y="234" type="curve" smooth="yes"/>
      <point x="484.5" y="226"/>
      <point x="483" y="218"/>
      <point x="481.5" y="210" type="curve"/>
    </contour>
    <contour>
      <point x="177.751" y="680.004" type="line"/>
      <point x="255.751" y="719.004" type="line"/>
      <point x="379.251" y="558.004" type="line"/>
      <point x="332.251" y="529.504" type="line"/>
    </contour>
  </outline>
</glyph>
<glyph name="uni0451" format="2">
  <advance width="499"/>
  <unicode hex="0451"/>
  <outline>
    <contour>
      <point x="98.5" y="210" type="line"/>
      <point x="108.5" y="278" type="line"/>
      <point x="406" y="278" type="line"/>
      <point x="410" y="344.5"/>
      <point x="379" y="398.5"/>
      <point x="302" y="399.5" type="curve" smooth="yes"/>
      <point x="219.5" y="400.5"/>
      <point x="154" y="339"/>
      <point x="138" y="260" type="curve"/>
      <point x="131" y="230" type="line"/>
      <point x="119" y="140.5"/>
      <point x="154" y="66"/>
      <point x="245.5" y="65.5" type="curve" smooth="yes"/>
      <point x="311" y="65"/>
      <point x="359.5" y="103"/>
      <point x="398" y="148.5" type="curve"/>
      <point x="458.5" y="105.5" type="line"/>
      <point x="403" y="39"/>
      <point x="336.5" y="-10.5"/>
      <point x="229.5" y="-9.5" type="curve" smooth="yes"/>
      <point x="101.5" y="-8"/>
      <point x="36.5" y="105.5"/>
      <point x="51.5" y="230" type="curve" smooth="yes"/>
      <point x="54" y="247"/>
      <point x="57.5" y="263"/>
      <point x="62.5" y="279" type="curve" smooth="yes"/>
      <point x="95.5" y="386.5"/>
      <point x="189.5" y="470"/>
      <point x="307.5" y="469.5" type="curve" smooth="yes"/>
      <point x="440" y="469"/>
      <point x="499.5" y="362.5"/>
      <point x="485.5" y="234" type="curve" smooth="yes"/>
      <point x="484.5" y="226"/>
      <point x="483" y="218"/>
      <point x="481.5" y="210" type="curve"/>
    </contour>
    <contour>
      <point x="369.483" y="585.105" type="curve" smooth="yes"/>
      <point x="371.983" y="612.105"/>
      <point x="403.483" y="640.105"/>
      <point x="430.983" y="638.605" type="curve" smooth="yes"/>
      <point x="459.483" y="637.105"/>
      <point x="479.983" y="611.105"/>
      <point x="477.483" y="583.105" type="curve" smooth="yes"/>
      <point x="474.983" y="556.105"/>
      <point x="443.483" y="528.105"/>
      <point x="415.983" y="529.605" type="curve" smooth="yes"/>
      <point x="387.483" y="531.105"/>
      <point x="366.983" y="557.105"/>
    </contour>
    <contour>
      <point x="175.483" y="585.105" type="curve" smooth="yes"/>
      <point x="177.983" y="612.105"/>
      <point x="209.483" y="640.105"/>
      <point x="236.983" y="638.605" type="curve" smooth="yes"/>
      <point x="265.483" y="637.105"/>
      <point x="285.983" y="611.105"/>
      <point x="283.483" y="583.105" type="curve" smooth="yes"/>
      <point x="280.983" y="556.105"/>
      <point x="249.483" y="528.105"/>
      <point x="221.983" y="529.605" type="curve" smooth="yes"/>
      <point x="193.483" y="531.105"/>
      <point x="172.983" y="557.105"/>
    </contour>
  </outline>
</glyph>
<glyph name="uni045D" format="2">
  <advance width="528"/>
  <unicode hex="045D"/>
  <outline>
    <contour>
      <point x="484.5" y="377" type="line"/>
      <point x="39.5" y="-41" type="line"/>
      <point x="68.5" y="83" type="line"/>
      <point x="513.5" y="501.5" type="line"/>
    </contour>
    <contour>
      <point x="208.5" y="460" type="line"/>
      <point x="141" y="71.5" type="line"/>
      <point x="39.5" y="-41" type="line"/>
      <point x="128" y="460" type="line"/>
    </contour>
    <contour>
      <point x="513.5" y="501.5" type="line"/>
      <point x="425" y="0" type="line"/>
      <point x="344.5" y="0" type="line"/>
      <point x="412" y="388.5" type="line"/>
    </contour>
    <contour>
      <point x="179.239" y="697" type="line"/>
      <point x="257.239" y="736" type="line"/>
      <point x="380.739" y="575" type="line"/>
      <point x="333.739" y="546.5" type="line"/>
    </contour>
  </outline>
</glyph>
<glyph name="uni045E" format="2">
  <advance width="426"/>
  <unicode hex="045E"/>
  <outline>
    <contour>
      <point x="482" y="459.5" type="line"/>
      <point x="73.5" y="-219.5" type="line"/>
      <point x="-20" y="-219.5" type="line"/>
      <point x="155.5" y="69" type="line"/>
      <point x="52" y="460" type="line"/>
      <point x="143.5" y="460" type="line"/>
      <point x="224.5" y="100" type="line"/>
      <point x="191" y="105" type="line"/>
      <point x="388.5" y="459.5" type="line"/>
    </contour>
    <contour>
      <point x="146" y="670" type="curve"/>
      <point x="215" y="669.5" type="line"/>
      <point x="213" y="637"/>
      <point x="225" y="596"/>
      <point x="283.5" y="595.5" type="curve" smooth="yes"/>
      <point x="344" y="595"/>
      <point x="369.5" y="637.5"/>
      <point x="383" y="669.5" type="curve"/>
      <point x="454.5" y="668.5" type="line"/>
      <point x="436.5" y="596"/>
      <point x="378" y="530.5"/>
      <point x="281" y="530.5" type="curve" smooth="yes"/>
      <point x="185" y="530.5"/>
      <point x="141" y="596"/>
    </contour>
  </outline>
</glyph>
<glyph name="quotedblright" format="2">
  <advance width="460"/>
  <unicode hex="201D"/>
  <outline>
    <contour>
      <point x="197.5" y="699.5" type="line"/>
      <point x="294" y="699.5" type="line"/>
      <point x="156" y="471" type="line"/>
      <point x="101" y="471" type="line"/>
    </contour>
    <contour>
      <point x="391.5" y="699.5" type="line"/>
      <point x="488.5" y="699.5" type="line"/>
      <point x="350.5" y="471" type="line"/>
      <point x="295" y="471" type="line"/>
    </contour>
  </outline>
</glyph>
<glyph name="uni203D" format="2">
  <advance width="540"/>
  <unicode hex="203D"/>
  <outline>
    <contour>
      <point x="461.5" y="500" type="curve" smooth="yes"/>
      <point x="475" y="578.5"/>
      <point x="429.5" y="634"/>
      <point x="345" y="634.5" type="curve" smooth="yes"/>
      <point x="279" y="635"/>
      <point x="229" y="598"/>
      <point x="190.5" y="552.5" type="curve"/>
      <point x="131.5" y="594.5" type="line"/>
      <point x="188" y="661"/>
      <point x="254.5" y="710.5"/>
      <point x="362" y="709.5" type="curve" smooth="yes"/>
      <point x="482.5" y="708.5"/>
      <point x="558.5" y="612.5"/>
      <point x="541.5" y="499.5" type="curve" smooth="yes"/>
      <point x="522" y="379"/>
      <point x="408.5" y="297"/>
      <point x="290" y="289.5" type="curve"/>
      <point x="248.5" y="346" type="line"/>
      <point x="356.5" y="351"/>
      <point x="443.5" y="413.5"/>
    </contour>
    <contour>
      <point x="252.5" y="510" type="line"/>
      <point x="353" y="509.5" type="line"/>
      <point x="274.5" y="170.5" type="line"/>
      <point x="215" y="170.5" type="line"/>
    </contour>
    <contour>
      <point x="168.5" y="41" type="curve" smooth="yes"/>
      <point x="171.5" y="68"/>
      <point x="203" y="96"/>
      <point x="230.5" y="94.5" type="curve" smooth="yes"/>
      <point x="259" y="93"/>
      <point x="279" y="67"/>
      <point x="276" y="39" type="curve" smooth="yes"/>
      <point x="273" y="12"/>
      <point x="241.5" y="-16"/>
      <point x="214" y="-14.5" type="curve" smooth="yes"/>
      <point x="185.5" y="-13"/>
      <point x="165.5" y="13"/>
    </contour>
  </outline>
</glyph>
<glyph name="uni2075" format="2">
  <advance width="345"/>
  <unicode hex="2075"/>
  <outline>
    <contour>
      <point x="361" y="415.5" type="curve" smooth="yes"/>
      <point x="349" y="329"/>
      <point x="277.5" y="272.5"/>
      <point x="195.5" y="272.5" type="curve" smooth="yes"/>
      <point x="126.5" y="272.5"/>
      <point x="87.5" y="310"/>
      <point x="63" y="361" type="curve"/>
      <point x="108.5" y="390" type="line"/>
      <point x="124.5" y="354"/>
      <point x="154" y="321"/>
      <point x="198.5" y="320.5" type="curve" smooth="yes"/>
      <point x="256" y="320"/>
      <point x="300" y="362"/>
      <point x="308.5" y="416" type="curve" smooth="yes"/>
      <point x="316.5" y="467.5"/>
      <point x="289" y="508.5"/>
      <point x="236.5" y="511.5" type="curve" smooth="yes"/>
      <point x="196" y="513.5"/>
      <point x="163" y="498.5"/>
      <point x="124" y="475.5" type="curve"/>
      <point x="157.5" y="513.5" type="line"/>
      <point x="185.5" y="540.5"/>
      <point x="224" y="558"/>
      <point x="260.5" y="557.5" type="curve" smooth="yes"/>
      <point x="335" y="556.5"/>
      <point x="371" y="488.5"/>
    </contour>
    <contour>
      <point x="248" y="653" type="line"/>
      <point x="194.5" y="526.5" type="line"/>
      <point x="118" y="470" type="line"/>
      <point x="214.5" y="697.5" type="line"/>
      <point x="408" y="697.5" type="line"/>
      <point x="400.5" y="653.5" type="line"/>
    </contour>
  </outline>
</glyph>
<glyph name="uni2077" format="2">
  <advance width="343"/>
  <unicode hex="2077"/>
  <outline>
    <contour>
      <point x="113" y="652.5" type="line"/>
      <point x="120.5" y="699.5" type="line"/>
      <point x="409" y="699.5" type="line"/>
      <point x="141.5" y="281" type="line"/>
      <point x="88" y="281" type="line"/>
      <point x="323" y="651.5" type="line"/>
    </contour>
  </outline>
</glyph>
<glyph name="uni2078" format="2">
  <advance width="312"/>
  <unicode hex="2078"/>
  <outline>
    <contour>
      <point x="118" y="599.5" type="curve" smooth="yes"/>
      <point x="127" y="657.5"/>
      <point x="184.5" y="706"/>
      <point x="247.5" y="705.5" type="curve" smooth="yes"/>
      <point x="310" y="705"/>
      <point x="352.5" y="656"/>
      <point x="344.5" y="598.5" type="curve" smooth="yes"/>
      <point x="336" y="536.5"/>
      <point x="280.5" y="493"/>
      <point x="215.5" y="493.5" type="curve" smooth="yes"/>
      <point x="150.5" y="494"/>
      <point x="109" y="537.5"/>
    </contour>
    <contour>
      <point x="165" y="592.5" type="curve" smooth="yes"/>
      <point x="160" y="558"/>
      <point x="182" y="528"/>
      <point x="217" y="526.5" type="curve" smooth="yes"/>
      <point x="252.5" y="525"/>
      <point x="290" y="557.5"/>
      <point x="295.5" y="593.5" type="curve" smooth="yes"/>
      <point x="300.5" y="628.5"/>
      <point x="281" y="659"/>
      <point x="244" y="660.5" type="curve" smooth="yes"/>
      <point x="206.5" y="662"/>
      <point x="170.5" y="629"/>
    </contour>
    <contour>
      <point x="68.5" y="394.5" type="curve" smooth="yes"/>
      <point x="78.5" y="466"/>
      <point x="145.5" y="514"/>
      <point x="214.5" y="513.5" type="curve" smooth="yes"/>
      <point x="283" y="513.5"/>
      <point x="334.5" y="464.5"/>
      <point x="324.5" y="393.5" type="curve" smooth="yes"/>
      <point x="314.5" y="328.5"/>
      <point x="250" y="274"/>
      <point x="178.5" y="274.5" type="curve" smooth="yes"/>
      <point x="108" y="275"/>
      <point x="59" y="330.5"/>
    </contour>
    <contour>
      <point x="118" y="400" type="curve" smooth="yes"/>
      <point x="111" y="355.5"/>
      <point x="138.5" y="320.5"/>
      <point x="181" y="319.5" type="curve" smooth="yes"/>
      <point x="224.5" y="318.5"/>
      <point x="270" y="353.5"/>
      <point x="277" y="400" type="curve" smooth="yes"/>
      <point x="283" y="441"/>
      <point x="255.5" y="479.5"/>
      <point x="213.5" y="480.5" type="curve" smooth="yes"/>
      <point x="170.5" y="481.5"/>
      <point x="125" y="442.5"/>
    </contour>
  </outline>
</glyph>
<glyph name="uni2079" format="2">
  <advance width="335"/>
  <unicode hex="2079"/>
  <outline>
    <contour>
      <point x="340" y="564" type="curve" smooth="yes"/>
      <point x="347.5" y="614.5"/>
      <point x="321.5" y="660.5"/>
      <point x="268" y="661.5" type="curve" smooth="yes"/>
      <point x="214" y="663"/>
      <point x="166" y="617"/>
      <point x="157.5" y="564" type="curve" smooth="yes"/>
      <point x="150" y="513.5"/>
      <point x="176" y="467"/>
      <point x="229.5" y="465.5" type="curve" smooth="yes"/>
      <point x="283.5" y="464"/>
      <point x="331.5" y="511"/>
    </contour>
    <contour>
      <point x="178" y="283" type="line"/>
      <point x="113" y="283.5" type="line"/>
      <point x="269" y="454.5" type="line"/>
      <point x="273.5" y="449.5" type="line"/>
      <point x="255" y="435"/>
      <point x="234.5" y="427.5"/>
      <point x="209" y="428" type="curve" smooth="yes"/>
      <point x="139" y="429"/>
      <point x="100.5" y="496.5"/>
      <point x="109.5" y="564.5" type="curve" smooth="yes"/>
      <point x="121" y="645"/>
      <point x="190" y="707.5"/>
      <point x="270.5" y="707.5" type="curve" smooth="yes"/>
      <point x="351" y="707.5"/>
      <point x="400" y="642"/>
      <point x="388.5" y="563.5" type="curve" smooth="yes"/>
      <point x="383.5" y="530.5"/>
      <point x="367.5" y="500.5"/>
      <point x="348" y="477" type="curve"/>
    </contour>
  </outline>
</glyph>
<glyph name="uni2082" format="2">
  <advance width="335"/>
  <unicode hex="2082"/>
  <outline>
    <contour>
      <point x="-2.5" y="3" type="line"/>
      <point x="223.5" y="214" type="line" smooth="yes"/>
      <point x="252" y="240.5"/>
      <point x="278.5" y="270"/>
      <point x="284.5" y="306" type="curve" smooth="yes"/>
      <point x="290" y="342"/>
      <point x="271.5" y="378.5"/>
      <point x="226" y="380.5" type="curve" smooth="yes"/>
      <point x="169" y="383.5"/>
      <point x="130.5" y="333"/>
      <point x="118" y="279" type="curve"/>
      <point x="67" y="279" type="line"/>
      <point x="84" y="360"/>
      <point x="140.5" y="429.5"/>
      <point x="229" y="428.5" type="curve" smooth="yes"/>
      <point x="310.5" y="428"/>
      <point x="345" y="361.5"/>
      <point x="335" y="301.5" type="curve" smooth="yes"/>
      <point x="327.5" y="256.5"/>
      <point x="297" y="218.5"/>
      <point x="262" y="186" type="curve" smooth="yes"/>
      <point x="110.5" y="50.5" type="line"/>
      <point x="293" y="49.5" type="line"/>
      <point x="285.5" y="2.5" type="line"/>
    </contour>
  </outline>
</glyph>
<glyph name="uni2084" format="2">
  <advance width="374"/>
  <unicode hex="2084"/>
  <outline>
    <contour>
      <point x="16" y="85" type="line"/>
      <point x="62.5" y="128" type="line"/>
      <point x="239" y="129" type="line"/>
      <point x="249" y="129" type="line"/>
      <point x="335" y="128.5" type="line"/>
      <point x="327.5" y="84.5" type="line"/>
    </contour>
    <contour>
      <point x="70.5" y="85" type="line"/>
      <point x="16" y="85.5" type="line"/>
      <point x="298.5" y="419" type="line"/>
      <point x="320.5" y="419.5" type="line"/>
      <point x="249" y="0" type="line"/>
      <point x="198.5" y="0" type="line"/>
      <point x="216.5" y="106" type="line"/>
      <point x="217.5" y="112" type="line"/>
      <point x="250" y="301.5" type="line"/>
    </contour>
  </outline>
</glyph>
<glyph name="uni2085" format="2">
  <advance width="345"/>
  <unicode hex="2085"/>
  <outline>
    <contour>
      <point x="313.5" y="135.5" type="curve" smooth="yes"/>
      <point x="301.5" y="49"/>
      <point x="230" y="-7.5"/>
      <point x="148" y="-7.5" type="curve" smooth="yes"/>
      <point x="79" y="-7.5"/>
      <point x="39.5" y="30"/>
      <point x="15" y="81" type="curve"/>
      <point x="60.5" y="110" type="line"/>
      <point x="76.5" y="74"/>
      <point x="106" y="41"/>
      <point x="150.5" y="40.5" type="curve" smooth="yes"/>
      <point x="208" y="40"/>
      <point x="252.5" y="82"/>
      <point x="261" y="136" type="curve" smooth="yes"/>
      <point x="269" y="187.5"/>
      <point x="241" y="228.5"/>
      <point x="188.5" y="231.5" type="curve" smooth="yes"/>
      <point x="148" y="233.5"/>
      <point x="115" y="218.5"/>
      <point x="76" y="195.5" type="curve"/>
      <point x="110" y="233.5" type="line"/>
      <point x="138" y="260.5"/>
      <point x="176.5" y="278"/>
      <point x="213" y="277.5" type="curve" smooth="yes"/>
      <point x="287.5" y="276.5"/>
      <point x="323.5" y="208.5"/>
    </contour>
    <contour>
      <point x="200.5" y="373" type="line"/>
      <point x="146.5" y="246.5" type="line"/>
      <point x="70.5" y="190" type="line"/>
      <point x="166.5" y="417.5" type="line"/>
      <point x="360" y="417.5" type="line"/>
      <point x="352.5" y="373.5" type="line"/>
    </contour>
  </outline>
</glyph>
<glyph name="uni2087" format="2">
  <advance width="343"/>
  <unicode hex="2087"/>
  <outline>
    <contour>
      <point x="65" y="372.5" type="line"/>
      <point x="73" y="419.5" type="line"/>
      <point x="361.5" y="419.5" type="line"/>
      <point x="93.5" y="0" type="line"/>
      <point x="40" y="0" type="line"/>
      <point x="275" y="371.5" type="line"/>
    </contour>
  </outline>
</glyph>
<glyph name="uni2150" format="2">
  <advance width="817"/>
  <unicode hex="2150"/>
  <outline>
    <contour>
      <point x="641.5" y="699" type="line"/>
      <point x="707" y="698.5" type="line"/>
      <point x="84.5" y="0" type="line"/>
      <point x="19" y="0" type="line"/>
    </contour>
    <contour>
      <point x="106.5" y="612" type="line"/>
      <point x="114.5" y="664" type="line"/>
      <point x="263" y="700.5" type="line"/>
      <point x="189.5" y="274.5" type="line"/>
      <point x="138.5" y="274.5" type="line"/>
      <point x="199.5" y="637.5" type="line"/>
    </contour>
    <contour>
      <point x="539" y="372.5" type="line"/>
      <point x="546.5" y="419.5" type="line"/>
      <point x="835" y="419.5" type="line"/>
      <point x="567.5" y="0" type="line"/>
      <point x="514" y="0" type="line"/>
      <point x="748.5" y="371.5" type="line"/>
    </contour>
  </outline>
</glyph>
<glyph name="uni2155" format="2">
  <advance width="722"/>
  <unicode hex="2155"/>
  <outline>
    <contour>
      <point x="641.5" y="699" type="line"/>
      <point x="707" y="698.5" type="line"/>
      <point x="84.5" y="0" type="line"/>
      <point x="19" y="0" type="line"/>
    </contour>
    <contour>
      <point x="106.5" y="612" type="line"/>
      <point x="114.5" y="664" type="line"/>
      <point x="263" y="700.5" type="line"/>
      <point x="189.5" y="274.5" type="line"/>
      <point x="138.5" y="274.5" type="line"/>
      <point x="199.5" y="637.5" type="line"/>
    </contour>
    <contour>
      <point x="690" y="135.5" type="curve" smooth="yes"/>
      <point x="678" y="49"/>
      <point x="606.5" y="-7.5"/>
      <point x="524.5" y="-7.5" type="curve" smooth="yes"/>
      <point x="455.5" y="-7.5"/>
      <point x="416" y="30"/>
      <point x="391.5" y="81" type="curve"/>
      <point x="437" y="110" type="line"/>
      <point x="453" y="74"/>
      <point x="483" y="41"/>
      <point x="527.5" y="40.5" type="curve" smooth="yes"/>
      <point x="585" y="40"/>
      <point x="629" y="82"/>
      <point x="637.5" y="136" type="curve" smooth="yes"/>
      <point x="645.5" y="187.5"/>
      <point x="617.5" y="228.5"/>
      <point x="565" y="231.5" type="curve" smooth="yes"/>
      <point x="524.5" y="233.5"/>
      <point x="491.5" y="218.5"/>
      <point x="452.5" y="195.5" type="curve"/>
      <point x="486.5" y="233.5" type="line"/>
      <point x="514.5" y="260.5"/>
      <point x="553" y="278"/>
      <point x="589.5" y="277.5" type="curve" smooth="yes"/>
      <point x="664" y="276.5"/>
      <point x="700" y="208.5"/>
    </contour>
    <contour>
      <point x="577" y="373" type="line"/>
      <point x="523" y="246.5" type="line"/>
      <point x="447" y="190" type="line"/>
      <point x="543.5" y="417.5" type="line"/>
      <point x="736.5" y="417.5" type="line"/>
      <point x="729.5" y="373.5" type="line"/>
    </contour>
  </outline>
</glyph>
<glyph name="oneeighth" format="2">
  <advance width="737"/>
  <unicode hex="215B"/>
  <outline>
    <contour>
      <point x="641.5" y="699" type="line"/>
      <point x="707" y="698.5" type="line"/>
      <point x="84.5" y="0" type="line"/>
      <point x="19" y="0" type="line"/>
    </contour>
    <contour>
      <point x="106.5" y="612" type="line"/>
      <point x="114.5" y="664" type="line"/>
      <point x="263" y="700.5" type="line"/>
      <point x="189.5" y="274.5" type="line"/>
      <point x="138.5" y="274.5" type="line"/>
      <point x="199.5" y="637.5" type="line"/>
    </contour>
    <contour>
      <point x="495.5" y="319.5" type="curve" smooth="yes"/>
      <point x="504.5" y="377.5"/>
      <point x="561.5" y="426"/>
      <point x="624.5" y="425.5" type="curve" smooth="yes"/>
      <point x="687" y="425"/>
      <point x="730" y="376"/>
      <point x="722" y="318.5" type="curve" smooth="yes"/>
      <point x="713.5" y="256.5"/>
      <point x="657.5" y="213"/>
      <point x="592.5" y="213.5" type="curve" smooth="yes"/>
      <point x="527.5" y="214"/>
      <point x="486.5" y="257.5"/>
    </contour>
    <contour>
      <point x="542.5" y="312.5" type="curve" smooth="yes"/>
      <point x="537.5" y="278"/>
      <point x="559" y="248"/>
      <point x="594" y="246.5" type="curve" smooth="yes"/>
      <point x="629.5" y="245"/>
      <point x="667" y="277.5"/>
      <point x="672.5" y="313.5" type="curve" smooth="yes"/>
      <point x="677.5" y="348.5"/>
      <point x="658.5" y="379"/>
      <point x="621.5" y="380.5" type="curve" smooth="yes"/>
      <point x="584" y="382"/>
      <point x="548" y="349"/>
    </contour>
    <contour>
      <point x="445.5" y="114.5" type="curve" smooth="yes"/>
      <point x="455.5" y="186"/>
      <point x="522.5" y="234"/>
      <point x="591.5" y="233.5" type="curve" smooth="yes"/>
      <point x="660" y="233.5"/>
      <point x="711.5" y="184.5"/>
      <point x="701.5" y="113.5" type="curve" smooth="yes"/>
      <point x="691.5" y="48.5"/>
      <point x="627" y="-6"/>
      <point x="555.5" y="-5.5" type="curve" smooth="yes"/>
      <point x="485" y="-5"/>
      <point x="436" y="50.5"/>
    </contour>
    <contour>
      <point x="495" y="120" type="curve" smooth="yes"/>
      <point x="488" y="75.5"/>
      <point x="516" y="40.5"/>
      <point x="558.5" y="39.5" type="curve" smooth="yes"/>
      <point x="602" y="38.5"/>
      <point x="647.5" y="73.5"/>
      <point x="654.5" y="120" type="curve" smooth="yes"/>
      <point x="660.5" y="161"/>
      <point x="633" y="199.5"/>
      <point x="591" y="200.5" type="curve" smooth="yes"/>
      <point x="548" y="201.5"/>
      <point x="502" y="162.5"/>
    </contour>
  </outline>
</glyph>
<glyph name="seveneighths" format="2">
  <advance width="749"/>
  <unicode hex="215E"/>
  <outline>
    <contour>
      <point x="653" y="699" type="line"/>
      <point x="718.5" y="698.5" type="line"/>
      <point x="96" y="0" type="line"/>
      <point x="30.5" y="0" type="line"/>
    </contour>
    <contour>
      <point x="113" y="652.5" type="line"/>
      <point x="120.5" y="699.5" type="line"/>
      <point x="409" y="699.5" type="line"/>
      <point x="141.5" y="281" type="line"/>
      <point x="88" y="281" type="line"/>
      <point x="323" y="651.5" type="line"/>
    </contour>
    <contour>
      <point x="507" y="319.5" type="curve" smooth="yes"/>
      <point x="516" y="377.5"/>
      <point x="573.5" y="426"/>
      <point x="636.5" y="425.5" type="curve" smooth="yes"/>
      <point x="699" y="425"/>
      <point x="741.5" y="376"/>
      <point x="733.5" y="318.5" type="curve" smooth="yes"/>
      <point x="725" y="256.5"/>
      <point x="669.5" y="213"/>
      <point x="604.5" y="213.5" type="curve" smooth="yes"/>
      <point x="539.5" y="214"/>
      <point x="498" y="257.5"/>
    </contour>
    <contour>
      <point x="554" y="312.5" type="curve" smooth="yes"/>
      <point x="549" y="278"/>
      <point x="570.5" y="248"/>
      <point x="605.5" y="246.5" type="curve" smooth="yes"/>
      <point x="641" y="245"/>
      <point x="679" y="277.5"/>
      <point x="684.5" y="313.5" type="curve" smooth="yes"/>
      <point x="689.5" y="348.5"/>
      <point x="670" y="379"/>
      <point x="633" y="380.5" type="curve" smooth="yes"/>
      <point x="595.5" y="382"/>
      <point x="559.5" y="349"/>
    </contour>
    <contour>
      <point x="457.5" y="114.5" type="curve" smooth="yes"/>
      <point x="467.5" y="186"/>
      <point x="534.5" y="234"/>
      <point x="603.5" y="233.5" type="curve" smooth="yes"/>
      <point x="672" y="233.5"/>
      <point x="723" y="184.5"/>
      <point x="713" y="113.5" type="curve" smooth="yes"/>
      <point x="703" y="48.5"/>
      <point x="638.5" y="-6"/>
      <point x="567" y="-5.5" type="curve" smooth="yes"/>
      <point x="496.5" y="-5"/>
      <point x="448" y="50.5"/>
    </contour>
    <contour>
      <point x="506.5" y="120" type="curve" smooth="yes"/>
      <point x="499.5" y="75.5"/>
      <point x="527.5" y="40.5"/>
      <point x="570" y="39.5" type="curve" smooth="yes"/>
      <point x="613.5" y="38.5"/>
      <point x="659" y="73.5"/>
      <point x="666" y="120" type="curve" smooth="yes"/>
      <point x="672" y="161"/>
      <point x="644.5" y="199.5"/>
      <point x="602.5" y="200.5" type="curve" smooth="yes"/>
      <point x="559.5" y="201.5"/>
      <point x="513.5" y="162.5"/>
    </contour>
  </outline>
</glyph>
<glyph name="uniFF11" format="2">
  <advance width="562"/>
  <unicode hex="FF11"/>
  <outline>
    <contour>
      <point x="178.5" y="561.5" type="line"/>
      <point x="195" y="651" type="line"/>
      <point x="440" y="710.5" type="line"/>
      <point x="317.5" y="0" type="line"/>
      <point x="233.5" y="0" type="line"/>
      <point x="337.5" y="606.5" type="line"/>
    </contour>
  </outline>
</glyph>
<glyph name="uniFF14" format="2">
  <advance width="562"/>
  <unicode hex="FF14"/>
  <outline>
    <contour>
      <point x="11.5" y="140.5" type="line"/>
      <point x="93" y="214.5" type="line"/>
      <point x="386" y="215" type="line"/>
      <point x="402.5" y="215" type="line"/>
      <point x="546" y="215" type="line"/>
      <point x="533" y="140" type="line"/>
    </contour>
    <contour>
      <point x="103.5" y="141" type="line"/>
      <point x="11.5" y="140.5" type="line"/>
      <point x="485" y="699" type="line"/>
      <point x="520.5" y="699.5" type="line"/>
      <point x="401" y="0" type="line"/>
      <point x="317" y="0" type="line"/>
      <point x="347.5" y="176" type="line"/>
      <point x="349.5" y="187" type="line"/>
      <point x="404" y="505.5" type="line"/>
    </contour>
  </outline>
</glyph>
<glyph name="uniFF17" format="2">
  <advance width="562"/>
  <unicode hex="FF17"/>
  <outline>
    <contour>
      <point x="134" y="620" type="line"/>
      <point x="148" y="700" type="line"/>
      <point x="626.5" y="699.5" type="line"/>
      <point x="180" y="0" type="line"/>
      <point x="90.5" y="0" type="line"/>
      <point x="484.5" y="619.5" type="line"/>
    </contour>
  </outline>
</glyph>
<glyph name="uniFF18" format="2">
  <advance width="562"/>
  <unicode hex="FF18"/>
  <outline>
    <contour>
      <point x="157" y="531.5" type="curve" smooth="yes"/>
      <point x="172.5" y="629.5"/>
      <point x="266" y="710"/>
      <point x="372.5" y="709.5" type="curve" smooth="yes"/>
      <point x="477" y="709"/>
      <point x="547" y="626.5"/>
      <point x="533" y="530.5" type="curve" smooth="yes"/>
      <point x="517.5" y="425.5"/>
      <point x="428" y="355.5"/>
      <point x="318" y="355.5" type="curve" smooth="yes"/>
      <point x="209.5" y="355.5"/>
      <point x="141.5" y="428.5"/>
    </contour>
    <contour>
      <point x="234.5" y="521" type="curve" smooth="yes"/>
      <point x="225.5" y="462.5"/>
      <point x="261.5" y="411.5"/>
      <point x="321.5" y="410.5" type="curve" smooth="yes"/>
      <point x="382.5" y="409.5"/>
      <point x="441.5" y="460"/>
      <point x="452" y="521" type="curve" smooth="yes"/>
      <point x="461.5" y="579.5"/>
      <point x="429" y="633.5"/>
      <point x="365.5" y="634.5" type="curve" smooth="yes"/>
      <point x="301" y="635.5"/>
      <point x="245" y="583"/>
    </contour>
    <contour>
      <point x="74.5" y="190.5" type="curve" smooth="yes"/>
      <point x="92" y="311"/>
      <point x="201.5" y="390"/>
      <point x="318" y="389.5" type="curve" smooth="yes"/>
      <point x="432" y="389.5"/>
      <point x="516" y="308"/>
      <point x="499" y="189.5" type="curve" smooth="yes"/>
      <point x="481.5" y="80"/>
      <point x="376" y="-10"/>
      <point x="255.5" y="-9.5" type="curve" smooth="yes"/>
      <point x="138" y="-9"/>
      <point x="58.5" y="84"/>
    </contour>
    <contour>
      <point x="155.5" y="200" type="curve" smooth="yes"/>
      <point x="144" y="125"/>
      <point x="190.5" y="66.5"/>
      <point x="262.5" y="65.5" type="curve" smooth="yes"/>
      <point x="335.5" y="64.5"/>
      <point x="409" y="122"/>
      <point x="421.5" y="200" type="curve" smooth="yes"/>
      <point x="432" y="268.5"/>
      <point x="385.5" y="333.5"/>
      <point x="314.5" y="334.5" type="curve" smooth="yes"/>
      <point x="242" y="335.5"/>
      <point x="168" y="271.5"/>
    </contour>
  </outline>
</glyph>
